<svg version="1.1" id="Layer_1" xmlns="http://www.w3.org/2000/svg" xmlns:xlink="http://www.w3.org/1999/xlink" x="0px" y="0px"
	 width="100%" viewBox="0 0 259 194" enable-background="new 0 0 259 194" xml:space="preserve">
<path fill="#FCFCFC" opacity="1.000000" stroke="none" 
	d="
M166.000000,195.000000 
	C110.666672,195.000000 55.833340,195.000000 1.000007,195.000000 
	C1.000005,130.333344 1.000005,65.666679 1.000002,1.000016 
	C87.333321,1.000011 173.666641,1.000011 260.000000,1.000005 
	C260.000000,65.666649 260.000000,130.333298 260.000000,194.999969 
	C228.833328,195.000000 197.666672,195.000000 166.000000,195.000000 
M229.872849,97.476738 
	C229.681198,97.188347 229.416367,97.006485 228.889725,96.467377 
	C228.625076,96.274712 228.360443,96.082054 227.869629,95.445969 
	C227.585815,95.290405 227.302002,95.134842 227.001831,95.000916 
	C227.001831,95.000916 227.024307,94.981865 227.029633,94.312286 
	C226.667480,93.506920 226.305328,92.701546 226.421997,91.377258 
	C227.981720,90.674431 229.541443,89.971603 231.101166,89.268784 
	C231.057037,88.788788 231.012909,88.308800 230.968781,87.828812 
	C228.286209,87.368111 225.603638,86.907410 223.856491,86.607353 
	C224.247559,83.965309 225.631439,80.793274 224.689407,79.776772 
	C222.243027,77.137009 218.774078,75.444916 214.513565,72.563255 
	C214.513565,77.952026 214.513565,81.411575 213.852249,84.843445 
	C209.690903,87.681847 211.695480,89.942520 214.875031,92.704872 
	C215.900436,93.061485 216.925858,93.418106 218.662277,93.803329 
	C219.503220,93.577957 220.344177,93.352585 221.841553,93.091492 
	C222.880539,92.799866 223.919525,92.508240 224.934525,92.912750 
	C224.946304,93.609085 224.958084,94.305412 224.420746,95.537460 
	C224.420746,97.490067 224.420746,99.442680 224.420746,101.395287 
	C224.732605,101.372948 225.044464,101.350609 225.356323,101.328262 
	C225.900055,99.555000 226.443771,97.781746 227.442810,96.059929 
	C227.442810,96.059929 227.898483,96.107941 228.111710,96.555466 
	C228.309586,96.844429 228.580658,97.021042 229.109467,97.541580 
	C229.302917,97.833298 229.571762,98.011024 230.043365,98.420059 
	C230.168884,98.463646 230.294403,98.507225 230.419922,98.550812 
	C230.300278,98.343666 230.180634,98.136520 229.872849,97.476738 
M117.530807,93.884560 
	C117.808861,93.675186 117.982071,93.399857 118.348099,92.934174 
	C118.215385,92.942162 118.082672,92.950150 117.498039,93.153252 
	C117.212387,93.345291 117.020782,93.606369 116.635315,94.100655 
	C116.783043,94.097839 116.930763,94.095032 117.530807,93.884560 
M45.067562,25.069223 
	C45.067562,25.069223 45.133385,25.099623 45.133385,25.099623 
	C45.133385,25.099623 44.767052,25.199932 45.060635,24.523169 
	C45.314560,23.225790 45.568485,21.928413 45.865223,20.412283 
	C44.348183,22.040100 43.001450,23.485174 41.936653,24.627728 
	C42.338425,24.702511 43.592880,24.936003 45.067562,25.069223 
M231.942642,100.553673 
	C231.818298,100.518379 231.693954,100.483078 231.569611,100.447784 
	C231.674179,100.665329 231.778748,100.882866 231.953186,101.824898 
	C231.952469,102.550690 231.951752,103.276474 231.163635,103.976730 
	C229.817581,103.976730 228.471527,103.976730 227.125473,103.976730 
	C227.186066,104.430634 227.246658,104.884529 227.307251,105.338432 
	C229.205811,104.896721 231.104385,104.455009 233.556534,104.371590 
	C234.057449,104.414185 234.558365,104.456787 235.059280,104.499390 
	C235.059280,100.611946 235.059280,96.724495 235.059280,92.837051 
	C234.459167,94.301926 234.399475,95.958961 233.946808,97.500610 
	C233.597046,98.691872 232.754807,99.738533 231.942642,100.553673 
M162.078339,95.489853 
	C162.278229,95.446892 162.478119,95.403938 162.678009,95.360985 
	C162.511368,95.186539 162.344742,95.012085 162.105103,94.117012 
	C158.231644,90.064629 155.875244,89.422974 152.617813,92.206024 
	C155.932693,93.278305 158.886368,94.233742 162.078339,95.489853 
M24.467714,46.575550 
	C25.801361,42.977062 25.653141,40.012947 20.663139,38.348618 
	C19.010895,37.811077 17.358652,37.273533 16.127888,36.873116 
	C15.045060,42.009602 14.071676,46.626934 12.946638,51.963654 
	C14.328918,52.656902 16.672167,53.832104 19.551470,55.004253 
	C19.729435,54.988220 19.907402,54.972183 20.815163,54.958172 
	C23.978361,53.680199 27.141560,52.402225 30.304758,51.124252 
	C30.228323,50.543686 30.151886,49.963120 30.075451,49.382549 
	C27.972986,49.149136 25.870522,48.915722 23.473679,47.806786 
	C23.567671,47.513588 23.661665,47.220390 24.467714,46.575550 
M194.052475,96.422325 
	C193.957962,95.875244 193.863464,95.328163 193.768951,94.781082 
	C193.559250,94.849648 193.349533,94.918213 193.139832,94.986778 
	C193.433334,95.653633 193.726822,96.320496 194.353775,97.603073 
	C203.637421,101.089272 195.462173,104.793411 194.244690,108.698135 
	C196.552139,107.638390 199.179031,106.625237 199.897705,104.842728 
	C202.115372,99.342354 201.014648,98.169785 194.052475,96.422325 
M189.989487,93.496460 
	C190.114609,93.765808 190.239731,94.035164 190.364838,94.304512 
	C190.249176,93.865425 190.133499,93.426338 189.466705,92.411270 
	C186.912674,92.276062 184.358643,92.140854 182.208847,92.027046 
	C182.208847,96.264389 182.208847,99.840080 182.208847,103.573509 
	C185.261032,103.573509 187.879684,103.573509 190.498337,103.573509 
	C190.499832,103.400116 190.501343,103.226730 190.502838,103.053337 
	C188.483276,102.945496 186.463730,102.837646 184.549713,102.735443 
	C183.098495,93.205849 183.222763,92.997826 189.989487,93.496460 
M139.264893,41.552696 
	C139.222839,33.013062 139.180786,24.473429 139.758087,15.385521 
	C142.743729,13.486233 144.105026,14.620872 144.147781,17.844147 
	C144.209595,22.504396 144.518494,27.201906 144.058380,31.817366 
	C143.579376,36.622341 145.286911,38.623474 150.208542,38.488358 
	C150.470764,38.381889 150.732971,38.275421 151.681946,37.944134 
	C160.680084,33.661087 161.542221,19.527889 152.922745,13.055722 
	C145.448090,7.443158 136.228378,6.816397 127.171043,4.427318 
	C127.171043,14.143689 127.223061,23.091526 127.124893,32.037716 
	C127.106407,33.722904 126.489464,35.401527 125.342651,37.010494 
	C118.614067,39.174786 111.885475,41.339077 104.399406,43.694920 
	C102.563522,45.735226 100.727631,47.775536 98.891739,49.815842 
	C101.084991,51.201931 103.114525,53.277321 105.502296,53.844456 
	C112.574280,55.524158 119.788216,56.459408 127.124931,54.812756 
	C127.821815,55.922394 128.278198,57.643120 129.259750,58.029411 
	C132.464142,59.290512 135.860046,60.064983 139.925674,61.145664 
	C143.077682,60.040287 146.229706,58.934910 150.076706,57.741585 
	C155.717941,55.741142 161.359192,53.740700 167.691589,51.637714 
	C169.822922,49.686947 173.416275,47.949444 173.739304,45.734905 
	C174.211472,42.497944 170.468460,42.247730 167.594055,41.212597 
	C158.788849,38.041634 150.462189,39.304081 141.347214,42.043251 
	C140.691452,42.225712 140.035706,42.408173 139.264893,41.552696 
M126.818535,95.420479 
	C126.344490,95.230362 125.870438,95.040237 125.396393,94.850121 
	C125.874779,95.297203 126.353172,95.744278 126.992447,96.898636 
	C128.846558,97.910950 131.552490,100.236328 132.395218,99.689613 
	C134.933762,98.042801 136.747147,95.278221 138.843338,92.949547 
	C138.436798,92.583717 138.030243,92.217888 137.623703,91.852051 
	C135.126068,93.675400 132.628433,95.498741 129.957199,97.448822 
	C129.546066,97.221634 128.323761,96.546204 126.818535,95.420479 
M160.116898,107.005150 
	C156.626144,106.818817 152.194885,107.849060 149.919754,106.090233 
	C147.813934,104.462280 148.015442,99.849648 147.200851,96.551399 
	C145.884308,100.529427 144.730103,104.664825 148.441925,107.483727 
	C152.284546,110.401955 156.641296,111.657494 161.612839,107.710526 
	C165.903305,101.860352 166.052063,100.018082 162.907043,97.928223 
	C162.272873,100.818130 161.598862,103.889656 160.116898,107.005150 
M206.065750,102.020905 
	C205.875854,98.716164 205.685959,95.411415 205.496063,92.106674 
	C205.018127,92.165794 204.540176,92.224922 204.062241,92.284042 
	C204.062241,96.170418 204.062241,100.056801 203.909592,104.645332 
	C201.147583,108.700256 201.213593,108.987816 204.891861,111.073463 
	C205.503937,109.227165 205.651047,106.171577 206.923309,105.593857 
	C208.587128,104.838333 211.241028,105.793709 213.231522,106.599632 
	C213.660370,106.773262 213.076553,109.448036 212.541534,111.225014 
	C212.563614,111.596893 212.585709,111.968781 212.607788,112.340660 
	C212.751022,111.906197 212.894241,111.471725 213.609756,111.248917 
	C216.824402,110.080597 217.002960,109.635551 216.588730,104.963081 
	C216.824112,104.789017 217.059479,104.614960 217.294861,104.440895 
	C216.865479,104.293457 216.436081,104.146019 215.619583,103.517143 
	C212.507034,103.310814 209.394501,103.104485 206.065750,102.020905 
M78.635567,74.328987 
	C77.907784,73.873611 77.179993,73.418228 75.715698,72.647675 
	C74.269531,73.466888 72.823364,74.286095 71.377190,75.105301 
	C71.508545,75.476082 71.639893,75.846855 71.771248,76.217636 
	C77.775635,76.217636 83.780022,76.217636 88.559090,76.217636 
	C88.081848,72.369072 87.700195,69.291359 87.318542,66.213638 
	C86.826797,66.047462 86.335052,65.881287 85.843307,65.715103 
	C85.529228,66.841988 85.055458,67.952721 84.939438,69.099640 
	C84.775574,70.719528 84.876205,72.366180 84.511726,74.148621 
	C84.283600,74.281387 84.116455,74.468605 83.178970,74.839691 
	C81.780121,74.796638 80.381271,74.753586 78.635567,74.328987 
M12.929932,71.874680 
	C10.352798,73.326660 7.775665,74.778633 4.368925,76.698021 
	C7.708956,77.264771 10.709349,77.773888 14.034410,78.804184 
	C14.975352,79.177994 15.916296,79.551811 17.597210,79.999924 
	C20.453592,76.720558 25.471136,78.701996 29.524862,74.688919 
	C27.405998,74.688919 26.285419,74.512466 25.244032,74.724663 
	C22.880131,75.206337 21.710518,74.498444 22.421535,71.330826 
	C23.789652,65.038910 21.654079,62.813080 13.580526,62.388035 
	C13.580526,65.473267 13.580526,68.554169 12.929932,71.874680 
M140.609695,85.083626 
	C140.609695,79.137283 140.609695,73.190933 140.609695,67.318573 
	C134.051712,67.318573 128.154312,67.318573 121.942024,67.318573 
	C121.942024,73.000214 121.852043,78.308159 122.035957,83.606606 
	C122.064590,84.431587 123.343002,85.213196 124.973099,86.012436 
	C130.124283,85.959167 135.275482,85.905907 140.609695,85.083626 
M246.013977,173.083847 
	C246.013977,157.354553 246.013977,141.625244 246.013977,125.986343 
	C231.393082,125.986343 217.351501,125.986343 203.194229,125.986343 
	C203.194229,142.156311 203.194229,158.076935 203.111908,174.520416 
	C203.405121,174.584091 203.698318,174.647766 204.914154,174.839584 
	C218.277893,174.790253 231.641647,174.740921 245.498245,174.866440 
	C245.602646,174.578278 245.707062,174.290131 246.013977,173.083847 
M231.078156,38.897621 
	C231.053680,38.652988 231.029205,38.408352 231.645447,37.872337 
	C237.152451,35.377834 237.824005,30.311274 237.829407,25.283741 
	C237.836182,18.961908 234.900482,13.756323 228.994766,11.416306 
	C221.971481,8.633473 214.577347,6.786565 206.637695,4.314211 
	C206.637695,12.303683 206.598663,19.422188 206.647324,26.540091 
	C206.711761,35.959923 206.717010,35.889050 197.650497,38.997696 
	C192.177032,40.874397 186.696167,42.796730 181.429581,45.167252 
	C179.917526,45.847828 178.233551,48.206669 178.309616,49.711018 
	C178.371780,50.940514 180.816666,52.826260 182.411575,53.069904 
	C190.179688,54.256569 198.017181,54.989136 206.518524,55.961124 
	C207.327896,57.992611 215.945419,62.240696 220.094437,60.894611 
	C229.855392,57.727814 239.520264,54.239227 249.092163,50.539658 
	C250.763687,49.893608 252.874695,47.538185 252.813370,46.053574 
	C252.751709,44.560558 250.417633,42.229763 248.757172,41.902973 
	C242.965332,40.763103 237.034042,40.331745 231.078156,38.897621 
M37.250668,132.798294 
	C36.826206,132.870941 36.401741,132.943588 35.231541,132.704086 
	C34.106289,132.490524 32.897930,132.471390 31.869360,132.031677 
	C25.501207,129.309280 22.133652,129.969940 19.331354,136.113892 
	C15.015991,145.575180 13.104502,155.701050 13.634995,166.160416 
	C13.819540,169.798996 14.776158,173.263458 19.064161,174.071518 
	C23.745258,174.953629 26.125435,171.933411 27.783752,168.237411 
	C29.176205,165.133987 30.289730,161.905396 30.957407,160.192673 
	C37.502167,159.405533 42.841225,158.271927 48.182922,158.259338 
	C53.510456,158.246811 58.840637,159.357910 65.185043,160.094208 
	C66.133492,162.414886 67.360298,166.201797 69.178490,169.679535 
	C71.839020,174.768478 77.709831,175.971680 80.506721,172.013184 
	C81.856483,170.102844 82.966324,167.288071 82.675026,165.082199 
	C81.506187,156.231094 80.477623,147.245819 78.001633,138.715210 
	C75.482666,130.036575 71.874039,129.058548 63.387081,132.522308 
	C62.637573,132.828201 61.801285,132.921448 60.484814,133.022125 
	C60.320324,133.085159 60.155838,133.148178 59.096058,132.908554 
	C52.025902,132.913757 44.955746,132.918961 37.250668,132.798294 
M82.810799,125.034981 
	C82.810799,112.172760 82.810799,99.310532 82.810799,86.562576 
	C59.249306,86.562576 36.211388,86.562576 13.105593,86.562576 
	C13.105593,99.611549 13.105593,112.366302 13.105593,125.532410 
	C36.207279,125.532410 59.114586,125.532410 82.810799,125.034981 
M147.623749,116.647270 
	C144.929810,114.219963 142.528198,114.385971 139.376389,116.431450 
	C132.979782,120.582764 126.106895,123.995705 119.648132,128.059189 
	C118.199036,128.970871 116.872627,131.277939 116.810951,132.990204 
	C116.517197,141.145798 116.539696,149.322266 116.799667,157.480148 
	C116.850410,159.072235 118.063286,161.243240 119.404930,162.075470 
	C126.594658,166.535187 133.949326,170.738708 141.370880,174.804626 
	C142.501007,175.423782 144.565826,175.387344 145.709122,174.761032 
	C152.985336,170.775238 160.207779,166.672333 167.240509,162.276184 
	C168.706161,161.360001 170.102844,159.082779 170.164261,157.383377 
	C170.458954,149.227890 170.448364,141.049286 170.142548,132.894028 
	C170.078903,131.197220 168.704636,128.932831 167.249634,128.012115 
	C161.082184,124.109459 154.656647,120.614662 147.623749,116.647270 
M79.591690,16.967440 
	C74.958763,13.913185 74.179626,18.662315 73.007164,20.860531 
	C72.555649,21.707060 75.298927,24.257607 76.586571,26.031757 
	C78.047882,24.629133 79.893097,23.437109 80.822601,21.742743 
	C81.356857,20.768864 80.407394,18.981037 79.591690,16.967440 
M10.062476,24.298653 
	C10.103197,22.542429 9.523350,20.478764 12.698652,21.016912 
	C15.663557,21.519400 16.788668,19.395325 16.117468,17.083008 
	C15.720623,15.715859 13.866542,14.500870 12.390405,13.810482 
	C11.359752,13.328448 9.859129,13.851273 8.229936,13.944664 
	C8.229936,17.470480 8.168840,20.748575 8.307949,24.018152 
	C8.325165,24.422787 9.407733,24.782095 10.062476,24.298653 
M223.055389,186.477859 
	C221.407623,185.580261 219.759842,184.682663 218.112076,183.785065 
	C218.267334,182.043335 217.639587,180.375885 216.747406,180.219803 
	C215.366623,179.978210 212.829819,179.163010 213.120377,182.532440 
	C213.157684,182.965149 210.651245,183.617203 208.995163,184.303604 
	C213.090744,185.886185 216.548309,187.336807 220.103317,188.486023 
	C220.714478,188.683594 221.740341,187.598236 223.055389,186.477859 
M153.798126,83.967453 
	C152.385147,83.864120 150.972153,83.760780 149.387344,83.644875 
	C149.387344,81.987991 149.387344,80.722008 149.387344,79.456024 
	C148.810425,79.530731 148.233490,79.605431 147.656570,79.680130 
	C148.135345,81.750969 148.468704,85.561623 149.116028,85.615730 
	C154.030930,86.026512 159.007263,85.702126 163.964462,85.606873 
	C163.951859,85.061707 163.939255,84.516533 163.926651,83.971359 
	C160.852539,83.971359 157.778412,83.971359 153.798126,83.967453 
M87.884544,40.245754 
	C83.118813,40.245754 78.353088,40.245754 73.287476,40.245754 
	C73.769951,42.273079 74.186989,44.025463 74.604034,45.777851 
	C74.876938,45.792454 75.149841,45.807056 75.422752,45.821659 
	C75.772789,44.585033 76.122826,43.348412 76.489235,42.053967 
	C78.821541,42.053967 80.815765,42.223633 82.766945,42.006454 
	C84.734810,41.787418 86.659950,41.184422 87.884544,40.245754 
M157.809662,188.099518 
	C154.849487,183.056671 160.536209,185.250061 161.906326,183.869553 
	C158.592682,180.688675 156.176910,182.290558 154.349503,184.879929 
	C153.548477,186.014969 153.723465,187.838791 153.455261,189.349854 
	C155.104462,189.022110 156.753647,188.694366 157.809662,188.099518 
M61.720642,73.157845 
	C60.719002,74.104828 59.858524,75.540451 58.681534,75.880478 
	C57.051052,76.351524 55.182579,75.998795 53.416012,75.998795 
	C53.450935,76.440582 53.485855,76.882370 53.520779,77.324158 
	C56.606441,77.125443 60.731037,78.052589 62.496616,76.423332 
	C64.406532,74.660881 64.114479,70.512207 64.821045,67.226578 
	C65.915955,67.164055 67.054482,67.109810 68.191307,67.031021 
	C69.289543,66.954918 70.386024,66.853500 71.483269,66.763199 
	C61.932678,65.332909 61.805557,65.411095 61.720642,73.157845 
M50.369392,67.518677 
	C50.503494,68.937012 50.637592,70.355347 50.771690,71.773674 
	C51.169655,71.836243 51.567619,71.898811 51.965580,71.961372 
	C52.349979,70.598801 53.087536,69.206573 52.976604,67.885597 
	C52.917049,67.176453 51.422070,66.073524 50.536232,66.034988 
	C46.140373,65.843750 41.731674,65.947769 37.327496,65.947769 
	C37.327816,66.343292 37.328133,66.738823 37.328449,67.134346 
	C41.430569,67.134346 45.532684,67.134346 50.369392,67.518677 
M229.151489,110.389923 
	C227.174438,108.546669 225.197388,106.703423 223.220337,104.860168 
	C222.808853,105.198547 222.397385,105.536926 221.985901,105.875305 
	C223.642441,108.045959 225.250610,110.259117 227.049194,112.304909 
	C227.189941,112.464996 228.660095,111.456337 229.151489,110.389923 
M41.691124,42.071747 
	C44.464729,42.071747 47.238335,42.071747 50.011940,42.071747 
	C49.988914,41.610203 49.965893,41.148663 49.942867,40.687119 
	C45.733578,40.687119 41.524284,40.687119 37.314995,40.687119 
	C37.296707,41.033554 37.278419,41.379993 37.260132,41.726429 
	C38.430172,41.841602 39.600216,41.956776 41.691124,42.071747 
M150.800095,76.479317 
	C150.931473,76.834534 151.058868,77.191528 151.212601,77.536789 
	C151.217438,77.547653 151.565948,77.483078 151.633011,77.377022 
	C152.685837,75.711952 153.330292,73.312439 154.833664,72.503418 
	C158.430267,70.567963 156.371155,69.225578 155.088867,66.231857 
	C153.398438,70.266685 152.225098,73.067291 150.800095,76.479317 
M98.545731,103.099731 
	C91.442947,102.495125 96.967773,96.581833 93.820457,93.250099 
	C93.820457,96.815872 93.504181,99.771431 94.059029,102.553230 
	C94.186180,103.190712 97.312256,103.230042 98.545731,103.099731 
M162.358307,81.596931 
	C161.235962,79.351997 160.113602,77.107063 158.991257,74.862129 
	C158.309158,75.300865 157.627060,75.739601 156.944977,76.178337 
	C158.800247,78.201241 160.655502,80.224144 162.358307,81.596931 
M128.489197,104.823959 
	C127.061386,103.814560 125.633575,102.805161 124.205772,101.795753 
	C124.008400,102.068123 123.811035,102.340485 123.613663,102.612846 
	C124.355675,104.197289 125.097687,105.781731 125.979851,107.665428 
	C126.795113,106.781754 127.453979,106.067596 128.489197,104.823959 
M114.786385,96.163849 
	C113.899879,96.916817 112.996933,97.653458 112.180336,98.475838 
	C112.143448,98.513000 112.887756,99.325851 113.268196,99.777405 
	C113.949135,98.720589 114.630081,97.663773 114.786385,96.163849 
M208.801941,87.384163 
	C208.032318,88.566582 207.262695,89.749001 206.493073,90.931419 
	C207.242126,91.159729 207.991180,91.388039 208.740234,91.616356 
	C208.900589,90.075432 209.060944,88.534508 208.801941,87.384163 
M53.019684,22.477345 
	C53.289295,23.470764 53.558907,24.464184 53.828518,25.457603 
	C54.190418,25.466921 54.552322,25.476238 54.914223,25.485554 
	C55.185596,24.226971 55.456974,22.968386 55.728348,21.709803 
	C54.896660,21.734943 54.064976,21.760086 53.019684,22.477345 
M149.127274,94.457848 
	C150.065674,93.809296 151.004074,93.160751 151.942474,92.512199 
	C151.430466,92.023521 150.918472,91.534836 150.406464,91.046158 
	C149.771820,92.198845 149.137177,93.351524 149.127274,94.457848 
M123.063217,91.682549 
	C122.759270,92.927391 122.455315,94.172234 122.151367,95.417084 
	C122.723221,95.412880 123.295074,95.408684 123.866928,95.404480 
	C123.802185,94.209068 123.737442,93.013649 123.063217,91.682549 
M152.782425,103.669022 
	C153.382690,103.412712 153.982971,103.156395 154.583237,102.900078 
	C154.094101,102.405212 153.604950,101.910355 153.115814,101.415497 
	C152.851852,102.011856 152.587891,102.608215 152.782425,103.669022 
M116.744759,103.835701 
	C117.512016,103.835701 118.279274,103.835701 119.871277,103.835701 
	C117.946861,102.779282 116.747215,102.120720 114.279160,100.765862 
	C115.500221,102.534889 115.845016,103.034409 116.744759,103.835701 
M90.283905,103.677063 
	C90.355034,103.532936 90.467178,103.393486 90.484306,103.243195 
	C90.498009,103.122948 90.387444,102.875351 90.346947,102.878464 
	C88.860985,102.992561 87.376762,103.129387 85.892303,103.263100 
	C85.900856,103.487198 85.909409,103.711296 85.917961,103.935394 
	C87.175400,103.935394 88.432846,103.935394 90.283905,103.677063 
M210.642639,94.041542 
	C210.890350,94.562134 211.138062,95.082726 211.385788,95.603325 
	C211.801712,95.182899 212.217636,94.762474 212.633560,94.342041 
	C212.112671,94.097412 211.591766,93.852791 210.642639,94.041542 
M60.562634,17.169374 
	C60.080692,17.137152 59.598755,17.104927 59.116814,17.072704 
	C59.288536,17.612465 59.460258,18.152227 59.631977,18.691988 
	C60.023220,18.372137 60.414463,18.052288 60.562634,17.169374 
M209.268341,112.679985 
	C209.192825,112.176804 209.117310,111.673630 209.041779,111.170456 
	C208.597809,111.246742 208.153824,111.323029 207.709854,111.399315 
	C208.031723,111.853996 208.353607,112.308685 209.268341,112.679985 
M192.600586,106.101746 
	C192.079636,106.057022 191.558670,106.012306 191.037735,105.967590 
	C191.230698,106.556602 191.423660,107.145615 191.616608,107.734642 
	C192.036575,107.390427 192.456543,107.046211 192.600586,106.101746 
M87.145096,187.914062 
	C87.099907,188.473236 87.054710,189.032410 87.009521,189.591583 
	C87.392052,189.578857 87.774582,189.566116 88.157120,189.553375 
	C88.075333,189.011429 87.993553,188.469498 87.145096,187.914062 
M193.642838,188.641068 
	C193.743469,187.796066 193.844086,186.951065 193.944717,186.106064 
	C193.678970,186.079559 193.413239,186.053070 193.147507,186.026566 
	C193.080841,186.941162 193.014191,187.855743 193.642838,188.641068 
M58.042778,185.899170 
	C57.918880,185.469299 57.794979,185.039413 57.420616,183.740540 
	C57.057549,185.701263 56.850777,186.817917 56.644005,187.934570 
	C56.871117,188.000580 57.098232,188.066589 57.325344,188.132584 
	C57.558056,187.666245 57.790768,187.199890 58.042778,185.899170 
M78.484367,70.409676 
	C78.419640,70.976646 78.354912,71.543625 78.290192,72.110596 
	C78.520836,72.119675 78.751480,72.128761 78.982124,72.137840 
	C78.982124,71.522163 78.982124,70.906494 78.484367,70.409676 
M111.303932,93.397415 
	C111.007805,93.615128 110.711670,93.832832 110.415535,94.050537 
	C110.604996,94.250427 110.794449,94.450317 110.983902,94.650208 
	C111.210831,94.360191 111.437759,94.070175 111.303932,93.397415 
M116.989174,189.534637 
	C116.867294,189.121216 116.745415,188.707794 116.623528,188.294373 
	C116.413834,188.403824 116.204147,188.513275 115.994453,188.622726 
	C116.314873,189.167374 116.635300,189.712036 116.989174,189.534637 
M237.097412,107.813156 
	C237.510010,108.102722 237.922623,108.392288 238.335220,108.681847 
	C238.048691,108.254364 237.762161,107.826881 237.097412,107.813156 
M220.664597,99.649170 
	C220.419571,99.531548 220.174545,99.413933 219.929520,99.296310 
	C219.857895,99.531540 219.786270,99.766769 219.714661,100.002007 
	C220.052200,100.027267 220.389755,100.052528 220.664597,99.649170 
M55.630322,19.473362 
	C55.855927,19.530766 56.081532,19.588167 56.307137,19.645571 
	C56.162502,19.505482 56.017872,19.365395 55.630322,19.473362 
M54.969967,186.636368 
	C54.759983,186.550262 54.549999,186.464142 54.340019,186.378036 
	C54.275925,186.629852 54.211834,186.881653 54.147736,187.133453 
	C54.467476,187.167145 54.787216,187.200836 54.969967,186.636368 
M81.772224,69.811340 
	C81.592422,69.871239 81.412621,69.931145 81.232811,69.991043 
	C81.413780,70.049065 81.594742,70.107086 81.772224,69.811340 
M130.744675,102.191841 
	C130.625473,102.029457 130.506287,101.867073 130.387070,101.704689 
	C130.411636,101.930847 130.436203,102.156998 130.744675,102.191841 
M92.497894,92.580116 
	C92.497894,92.580116 92.431908,92.475838 92.497894,92.580116 
M102.483452,185.594635 
	C102.483452,185.594635 102.410851,185.476196 102.483452,185.594635 
M53.462143,184.783615 
	C53.555172,184.699844 53.714813,184.621628 53.722416,184.530716 
	C53.729958,184.440598 53.584255,184.337692 53.505764,184.240387 
	C53.412457,184.323898 53.319149,184.407425 53.462143,184.783615 
M108.422531,92.482170 
	C108.422531,92.482170 108.537323,92.421234 108.422531,92.482170 
M153.584259,97.515427 
	C153.584259,97.515427 153.477280,97.578613 153.584259,97.515427 
z"/>
<path fill="#080808" opacity="1.000000" stroke="none" 
	d="
M82.416344,125.283691 
	C59.114586,125.532410 36.207279,125.532410 13.105593,125.532410 
	C13.105593,112.366302 13.105593,99.611549 13.105593,86.562576 
	C36.211388,86.562576 59.249306,86.562576 82.810799,86.562576 
	C82.810799,99.310532 82.810799,112.172760 82.416344,125.283691 
z"/>
<path fill="#050505" opacity="1.000000" stroke="none" 
	d="
M147.974579,116.809052 
	C154.656647,120.614662 161.082184,124.109459 167.249634,128.012115 
	C168.704636,128.932831 170.078903,131.197220 170.142548,132.894028 
	C170.448364,141.049286 170.458954,149.227890 170.164261,157.383377 
	C170.102844,159.082779 168.706161,161.360001 167.240509,162.276184 
	C160.207779,166.672333 152.985336,170.775238 145.709122,174.761032 
	C144.565826,175.387344 142.501007,175.423782 141.370880,174.804626 
	C133.949326,170.738708 126.594658,166.535187 119.404930,162.075470 
	C118.063286,161.243240 116.850410,159.072235 116.799667,157.480148 
	C116.539696,149.322266 116.517197,141.145798 116.810951,132.990204 
	C116.872627,131.277939 118.199036,128.970871 119.648132,128.059189 
	C126.106895,123.995705 132.979782,120.582764 139.376389,116.431450 
	C142.528198,114.385971 144.929810,114.219963 147.974579,116.809052 
M149.833710,146.305756 
	C151.189514,145.303650 153.431122,144.513458 153.731247,143.258820 
	C154.555801,139.811829 154.451218,136.016541 150.742493,134.053787 
	C147.152298,132.153763 143.271851,130.802216 138.697159,128.861099 
	C138.697159,137.638901 138.920135,145.268921 138.614517,152.877716 
	C138.427673,157.529160 140.662933,159.263000 145.005539,159.992813 
	C145.005539,151.876297 145.005539,144.073776 145.005539,136.271255 
	C145.431793,136.106552 145.858032,135.941849 146.284286,135.777130 
	C146.910522,137.098328 147.750854,138.363892 148.112045,139.753967 
	C148.634064,141.763046 148.808884,143.862320 149.833710,146.305756 
M160.891541,150.377853 
	C156.902145,146.969101 152.541382,148.082886 148.284088,149.563766 
	C147.579926,149.808716 147.346664,151.407425 146.752884,152.688934 
	C150.837570,152.151367 154.061951,151.727020 157.286346,151.302673 
	C154.219727,155.043015 148.603226,154.009766 147.343002,159.266953 
	C151.955429,158.143967 156.232620,156.504013 160.456604,154.736862 
	C162.327240,153.954239 163.771439,152.835449 160.891541,150.377853 
M131.556412,157.445312 
	C133.301987,156.896973 135.047577,156.348618 136.793152,155.800262 
	C136.639648,155.282623 136.486145,154.764984 136.332657,154.247345 
	C134.492340,154.119629 132.652039,153.991913 130.676910,153.854843 
	C131.675064,150.922424 137.860687,152.958511 135.794098,147.252365 
	C132.852966,148.305725 129.978333,149.062378 127.387291,150.377747 
	C126.080841,151.041000 125.288536,152.717041 124.263756,153.935135 
	C125.624466,154.951569 126.924866,156.068268 128.373016,156.939331 
	C129.031403,157.335342 129.982224,157.245148 131.556412,157.445312 
z"/>
<path fill="#010101" opacity="1.000000" stroke="none" 
	d="
M61.005299,133.113464 
	C61.801285,132.921448 62.637573,132.828201 63.387081,132.522308 
	C71.874039,129.058548 75.482666,130.036575 78.001633,138.715210 
	C80.477623,147.245819 81.506187,156.231094 82.675026,165.082199 
	C82.966324,167.288071 81.856483,170.102844 80.506721,172.013184 
	C77.709831,175.971680 71.839020,174.768478 69.178490,169.679535 
	C67.360298,166.201797 66.133492,162.414886 65.185043,160.094208 
	C58.840637,159.357910 53.510456,158.246811 48.182922,158.259338 
	C42.841225,158.271927 37.502167,159.405533 30.957407,160.192673 
	C30.289730,161.905396 29.176205,165.133987 27.783752,168.237411 
	C26.125435,171.933411 23.745258,174.953629 19.064161,174.071518 
	C14.776158,173.263458 13.819540,169.798996 13.634995,166.160416 
	C13.104502,155.701050 15.015991,145.575180 19.331354,136.113892 
	C22.133652,129.969940 25.501207,129.309280 31.869360,132.031677 
	C32.897930,132.471390 34.106289,132.490524 35.572594,133.319000 
	C35.913643,137.552673 35.913643,141.171448 35.913643,144.790207 
	C36.570957,144.787567 37.228275,144.784943 37.885590,144.782303 
	C37.885590,140.829590 37.885590,136.876892 37.885590,132.924164 
	C44.955746,132.918961 52.025902,132.913757 59.531311,133.500961 
	C59.928253,137.339767 59.889942,140.586166 59.551659,143.914093 
	C58.773411,144.611664 58.295139,145.227707 57.361450,145.880020 
	C50.998081,145.916290 45.090126,145.916290 39.182175,145.916290 
	C39.197094,146.413910 39.212017,146.911530 39.226936,147.409134 
	C45.531685,146.991486 51.836433,146.573822 58.443977,146.077286 
	C59.220894,145.381866 59.695015,144.765305 60.424904,143.819672 
	C60.788883,140.031555 60.897091,136.572510 61.005299,133.113464 
M74.684258,141.993240 
	C74.979317,141.657806 75.274376,141.322372 75.569435,140.986938 
	C75.356598,140.802521 75.143768,140.618088 74.930931,140.433670 
	C74.584473,140.918686 74.238014,141.403702 73.333969,142.022110 
	C73.157211,142.545532 72.980446,143.068954 72.803680,143.592377 
	C73.246429,143.103271 73.689178,142.614182 74.684258,141.993240 
M58.685097,157.975586 
	C62.323353,157.836929 64.163567,155.728912 62.820004,152.511383 
	C62.264908,151.182068 58.998898,149.925339 57.377281,150.321167 
	C53.994450,151.146912 54.343292,154.810989 58.685097,157.975586 
M40.912491,152.717346 
	C39.371941,151.739578 37.922874,150.300797 36.254013,149.969604 
	C35.357925,149.791779 33.102936,151.611328 33.175549,152.364258 
	C33.352551,154.199493 34.089470,156.952377 35.390041,157.516525 
	C38.654213,158.932404 40.671051,157.055969 40.912491,152.717346 
M28.712992,147.336853 
	C28.712992,144.317123 28.712992,141.297394 28.712992,138.301376 
	C23.820467,138.110214 23.265774,139.731522 24.716358,148.445023 
	C25.911924,148.212158 27.108246,147.979126 28.712992,147.336853 
M69.195587,145.906448 
	C69.003113,147.097763 68.810646,148.289078 68.578018,149.728958 
	C70.210899,149.096573 71.357674,148.652451 73.221970,147.930450 
	C71.790527,146.946304 70.693832,146.192307 69.195587,145.906448 
M67.669022,143.142776 
	C66.803558,142.166779 65.938103,141.190781 64.576828,139.655640 
	C64.123871,141.882324 63.858673,143.185974 63.565994,144.624741 
	C65.078995,144.229828 66.226265,143.930374 67.669022,143.142776 
M72.218376,138.824966 
	C71.551559,138.382202 70.884750,137.939438 70.217934,137.496674 
	C69.968079,138.449570 69.718231,139.402481 69.468384,140.355377 
	C70.208763,139.983627 70.949142,139.611877 72.218376,138.824966 
M31.969391,141.764969 
	C31.856380,142.589798 31.743370,143.414627 31.630362,144.239456 
	C32.029617,144.265808 32.428871,144.292160 32.828125,144.318512 
	C32.734406,143.443069 32.640686,142.567642 31.969391,141.764969 
M20.437525,143.707855 
	C20.710432,143.995270 20.983341,144.282684 21.256254,144.570099 
	C21.375240,144.455872 21.604342,144.249146 21.597300,144.240768 
	C21.342211,143.937012 21.065121,143.651733 20.437525,143.707855 
z"/>
<path fill="#070707" opacity="1.000000" stroke="none" 
	d="
M231.155762,39.631111 
	C237.034042,40.331745 242.965332,40.763103 248.757172,41.902973 
	C250.417633,42.229763 252.751709,44.560558 252.813370,46.053574 
	C252.874695,47.538185 250.763687,49.893608 249.092163,50.539658 
	C239.520264,54.239227 229.855392,57.727814 220.094437,60.894611 
	C215.945419,62.240696 207.327896,57.992611 206.518524,55.961124 
	C198.017181,54.989136 190.179688,54.256569 182.411575,53.069904 
	C180.816666,52.826260 178.371780,50.940514 178.309616,49.711018 
	C178.233551,48.206669 179.917526,45.847828 181.429581,45.167252 
	C186.696167,42.796730 192.177032,40.874397 197.650497,38.997696 
	C206.717010,35.889050 206.711761,35.959923 206.647324,26.540091 
	C206.598663,19.422188 206.637695,12.303683 206.637695,4.314211 
	C214.577347,6.786565 221.971481,8.633473 228.994766,11.416306 
	C234.900482,13.756323 237.836182,18.961908 237.829407,25.283741 
	C237.824005,30.311274 237.152451,35.377834 230.888702,37.977074 
	C223.389374,38.152176 223.380493,38.152229 223.338974,31.331251 
	C223.311630,26.837421 223.468430,22.333845 223.190399,17.856522 
	C223.124680,16.798519 221.642120,15.828504 220.811340,14.818008 
	C220.099792,15.734073 218.789169,16.638144 218.770554,17.568090 
	C218.608017,25.684027 218.676682,33.804592 218.676682,42.378887 
	C223.154099,41.393005 227.154922,40.512058 231.155762,39.631111 
M234.166443,48.657734 
	C236.805695,47.529091 239.444946,46.400448 242.084183,45.271801 
	C241.783981,44.475327 241.483765,43.678852 241.183548,42.882378 
	C234.141068,45.017307 227.065247,47.053787 220.098770,49.413132 
	C219.238434,49.704494 218.960785,51.716282 217.909531,54.047638 
	C224.046753,52.014473 228.732712,50.462086 234.166443,48.657734 
M206.748016,44.398003 
	C206.553284,43.971771 206.235794,43.157234 206.181274,43.174469 
	C200.823700,44.868244 195.486053,46.625084 190.147171,48.377972 
	C194.938492,51.643700 203.618683,49.165169 206.748016,44.398003 
z"/>
<path fill="#DF0F2F" opacity="1.000000" stroke="none" 
	d="
M126.148666,37.083179 
	C126.489464,35.401527 127.106407,33.722904 127.124893,32.037716 
	C127.223061,23.091526 127.171043,14.143689 127.171043,4.427318 
	C136.228378,6.816397 145.448090,7.443158 152.922745,13.055722 
	C161.542221,19.527889 160.680084,33.661087 151.089233,38.011810 
	C150.333725,38.124329 150.170914,38.169167 150.008102,38.214008 
	C145.286911,38.623474 143.579376,36.622341 144.058380,31.817366 
	C144.518494,27.201906 144.209595,22.504396 144.147781,17.844147 
	C144.105026,14.620872 142.743729,13.486233 139.126175,15.941511 
	C138.327881,23.274454 138.068253,30.051184 138.052109,36.828495 
	C138.047287,38.852882 138.723770,40.878895 139.180679,43.373215 
	C139.379105,45.745869 139.484955,47.649471 139.469513,49.889175 
	C139.539352,51.664909 139.730469,53.104542 139.679489,54.950798 
	C139.352356,57.247162 139.267319,59.136898 139.182281,61.026642 
	C135.860046,60.064983 132.464142,59.290512 129.259750,58.029411 
	C128.278198,57.643120 127.821815,55.922394 127.106262,54.036964 
	C126.726746,51.787552 126.365898,50.313934 126.216934,48.501842 
	C126.607025,46.322624 126.785240,44.481888 127.028366,42.278038 
	C126.778412,40.304348 126.463539,38.693764 126.148666,37.083179 
z"/>
<path fill="#010101" opacity="1.000000" stroke="none" 
	d="
M245.005386,174.691589 
	C231.641647,174.740921 218.277893,174.790253 204.374832,174.604584 
	C203.663269,174.174011 203.449509,174.050003 203.194229,173.997559 
	C203.194229,158.076935 203.194229,142.156311 203.194229,125.986343 
	C217.351501,125.986343 231.393082,125.986343 246.013977,125.986343 
	C246.013977,141.625244 246.013977,157.354553 245.732422,173.597168 
	C245.209671,174.233109 245.061172,174.426804 245.005386,174.691589 
M206.009125,162.147888 
	C206.896515,162.967758 207.724518,164.402084 208.682175,164.494614 
	C211.808762,164.796692 214.982635,164.610168 218.138321,164.610321 
	C226.370377,164.610718 234.602448,164.610458 242.677704,164.610458 
	C242.677704,152.222061 242.677704,140.522385 242.677704,129.056870 
	C230.287338,129.056870 218.252548,129.056870 206.008835,129.056870 
	C206.008835,139.984695 206.008835,150.594864 206.009125,162.147888 
M237.606812,171.801147 
	C237.475510,170.268860 237.344193,168.736588 237.145782,166.421143 
	C234.861313,168.052032 233.603775,168.949783 231.654877,170.341110 
	C233.845291,171.152786 235.477341,171.757568 237.606812,171.801147 
M221.065475,170.272446 
	C220.714523,169.356812 220.363586,168.441193 219.715012,166.749039 
	C219.129349,168.437408 218.871735,169.180099 218.629425,169.878632 
	C218.246445,169.151947 217.848145,168.396164 217.449844,167.640381 
	C216.933884,168.002548 216.417923,168.364716 215.901947,168.726883 
	C216.360703,169.861053 216.616623,171.763123 217.325470,171.950333 
	C218.403183,172.234970 219.794968,171.330444 221.065475,170.272446 
M243.000046,171.291809 
	C243.108002,168.640671 242.332535,167.191696 239.411270,168.469635 
	C239.507874,173.117889 239.507874,173.117889 243.000046,171.291809 
M225.711105,169.704437 
	C225.760895,170.641937 225.810669,171.579453 225.860458,172.516953 
	C226.404922,172.527466 226.949387,172.537994 227.493851,172.548508 
	C227.493851,171.062027 227.493851,169.575531 227.493851,168.089050 
	C226.840668,168.429977 226.187469,168.770905 225.711105,169.704437 
M206.735580,167.518784 
	C207.127350,168.544586 207.519104,169.570389 207.910858,170.596176 
	C208.336609,170.338913 208.762360,170.081650 209.188110,169.824387 
	C208.569702,169.106232 207.951294,168.388077 206.735580,167.518784 
M213.833420,168.911804 
	C213.943573,168.801224 214.098343,168.707031 214.147202,168.573959 
	C214.176758,168.493454 214.045486,168.256119 213.980667,168.253815 
	C213.297607,168.229782 212.613403,168.238968 211.929504,168.238968 
	C211.933731,168.428452 211.937943,168.617920 211.942169,168.807404 
	C212.384033,168.877655 212.825897,168.947906 213.833420,168.911804 
z"/>
<path fill="#3275B6" opacity="1.000000" stroke="none" 
	d="
M142.032135,42.075104 
	C150.462189,39.304081 158.788849,38.041634 167.594055,41.212597 
	C170.468460,42.247730 174.211472,42.497944 173.739304,45.734905 
	C173.416275,47.949444 169.822922,49.686947 167.078949,51.463516 
	C163.603439,50.171577 160.740601,49.053833 158.130722,47.670639 
	C159.926773,46.612309 161.469849,45.819435 163.012924,45.026558 
	C162.773422,44.390099 162.533920,43.753635 162.294434,43.117176 
	C157.660263,44.251705 153.026108,45.386234 148.185120,46.189690 
	C145.996231,44.597446 144.014175,43.336277 142.032135,42.075104 
z"/>
<path fill="#F0C318" opacity="1.000000" stroke="none" 
	d="
M126.005051,48.840324 
	C126.365898,50.313934 126.726746,51.787552 127.024384,53.660751 
	C119.788216,56.459408 112.574280,55.524158 105.502296,53.844456 
	C103.114525,53.277321 101.084991,51.201931 98.891739,49.815842 
	C100.727631,47.775536 102.563522,45.735226 105.135727,43.745583 
	C108.715103,44.783703 111.558151,45.771164 114.049248,46.914955 
	C112.757095,47.749741 111.816902,48.428196 110.876709,49.106651 
	C111.033058,49.681335 111.189407,50.256016 111.345757,50.830700 
	C116.232185,50.167240 121.118622,49.503784 126.005051,48.840324 
z"/>
<path fill="#111111" opacity="1.000000" stroke="none" 
	d="
M214.513580,84.871124 
	C214.513565,81.411575 214.513565,77.952026 214.513565,72.563255 
	C218.774078,75.444916 222.243027,77.137009 224.689407,79.776772 
	C225.631439,80.793274 224.247559,83.965309 223.856491,86.607353 
	C225.603638,86.907410 228.286209,87.368111 230.968781,87.828812 
	C231.012909,88.308800 231.057037,88.788788 231.101166,89.268784 
	C229.541443,89.971603 227.981720,90.674431 225.910416,91.636917 
	C225.252075,92.003258 225.105301,92.109932 224.958511,92.216614 
	C223.919525,92.508240 222.880539,92.799866 221.260956,92.923325 
	C221.337189,91.785973 221.993988,90.816795 222.113510,90.640434 
	C221.560089,88.774719 221.181351,87.497871 220.947021,86.360085 
	C221.301010,86.448044 221.510559,86.396942 221.720108,86.345840 
	C221.574265,86.137589 221.428406,85.929352 221.254333,85.291466 
	C221.082108,82.628799 220.938095,80.395775 220.794083,78.162743 
	C220.027039,78.086578 219.260010,78.010406 218.492966,77.934235 
	C217.321411,83.065987 218.208694,88.506073 217.951263,93.774719 
	C216.925858,93.418106 215.900436,93.061485 214.846024,91.978012 
	C214.715866,89.124474 214.614716,86.997803 214.513580,84.871124 
z"/>
<path fill="#1CACA0" opacity="1.000000" stroke="none" 
	d="
M157.877747,47.936089 
	C160.740601,49.053833 163.603439,50.171577 166.733368,51.514790 
	C161.359192,53.740700 155.717941,55.741142 149.418732,57.535271 
	C145.840103,56.378925 142.919464,55.428890 140.240631,54.185616 
	C146.280869,51.906948 152.079300,49.921520 157.877747,47.936089 
z"/>
<path fill="#F9F9F9" opacity="1.000000" stroke="none" 
	d="
M231.116959,39.264366 
	C227.154922,40.512058 223.154099,41.393005 218.676682,42.378887 
	C218.676682,33.804592 218.608017,25.684027 218.770554,17.568090 
	C218.789169,16.638144 220.099792,15.734073 220.811340,14.818008 
	C221.642120,15.828504 223.124680,16.798519 223.190399,17.856522 
	C223.468430,22.333845 223.311630,26.837421 223.338974,31.331251 
	C223.380493,38.152229 223.389374,38.152176 230.568344,38.122761 
	C231.029205,38.408352 231.053680,38.652988 231.116959,39.264366 
z"/>
<path fill="#1CACA0" opacity="1.000000" stroke="none" 
	d="
M114.401207,46.758625 
	C111.558151,45.771164 108.715103,44.783703 105.514465,43.649803 
	C111.885475,41.339077 118.614067,39.174786 125.745659,37.046837 
	C126.463539,38.693764 126.778412,40.304348 126.647995,42.367889 
	C122.268875,44.133438 118.335045,45.446030 114.401207,46.758625 
z"/>
<path fill="#636363" opacity="1.000000" stroke="none" 
	d="
M124.043488,86.014862 
	C123.343002,85.213196 122.064590,84.431587 122.035957,83.606606 
	C121.852043,78.308159 121.942024,73.000214 121.942024,67.318573 
	C128.154312,67.318573 134.051712,67.318573 140.609695,67.318573 
	C140.609695,73.190933 140.609695,79.137283 140.460098,85.154312 
	C140.194275,84.816238 140.078033,84.407486 140.115326,83.552078 
	C140.268860,78.511620 140.268860,73.917816 140.268860,69.268311 
	C134.484741,69.268311 129.267258,69.268311 124.193611,69.268311 
	C124.193611,74.410408 124.193611,79.203247 124.180130,84.334717 
	C124.125595,85.120529 124.084541,85.567696 124.043488,86.014862 
z"/>
<path fill="#070707" opacity="1.000000" stroke="none" 
	d="
M16.857239,79.925621 
	C15.916296,79.551811 14.975352,79.177994 14.018456,78.082062 
	C13.861842,75.451645 13.721184,73.543358 13.580526,71.635063 
	C13.580526,68.554169 13.580526,65.473267 13.580526,62.388035 
	C21.654079,62.813080 23.789652,65.038910 21.774267,71.664047 
	C20.425972,71.229942 19.365412,70.567291 19.104719,69.671783 
	C18.668877,68.174606 18.743927,66.528702 18.603930,64.945404 
	C18.021700,64.983086 17.439468,65.020760 16.857239,65.058434 
	C16.857239,70.014168 16.857239,74.969894 16.857239,79.925621 
z"/>
<path fill="#262626" opacity="1.000000" stroke="none" 
	d="
M19.015415,55.007309 
	C16.672167,53.832104 14.328918,52.656902 12.946638,51.963654 
	C14.071676,46.626934 15.045060,42.009602 16.127888,36.873116 
	C17.358652,37.273533 19.010895,37.811077 20.693432,38.745773 
	C20.487947,39.387039 20.252172,39.631142 19.639069,40.100708 
	C19.179632,45.219883 19.097525,50.113598 19.015415,55.007309 
z"/>
<path fill="#393939" opacity="1.000000" stroke="none" 
	d="
M79.858765,17.263527 
	C80.407394,18.981037 81.356857,20.768864 80.822601,21.742743 
	C79.893097,23.437109 78.047882,24.629133 76.586571,26.031757 
	C75.298927,24.257607 72.555649,21.707060 73.007164,20.860531 
	C74.179626,18.662315 74.958763,13.913185 79.858765,17.263527 
z"/>
<path fill="#262626" opacity="1.000000" stroke="none" 
	d="
M10.029554,24.730530 
	C9.407733,24.782095 8.325165,24.422787 8.307949,24.018152 
	C8.168840,20.748575 8.229936,17.470480 8.229936,13.944664 
	C9.859129,13.851273 11.359752,13.328448 12.390405,13.810482 
	C13.866542,14.500870 15.720623,15.715859 16.117468,17.083008 
	C16.788668,19.395325 15.663557,21.519400 12.698652,21.016912 
	C9.523350,20.478764 10.103197,22.542429 10.029554,24.730530 
z"/>
<path fill="#D5D5D5" opacity="1.000000" stroke="none" 
	d="
M17.227224,79.962769 
	C16.857239,74.969894 16.857239,70.014168 16.857239,65.058434 
	C17.439468,65.020760 18.021700,64.983086 18.603930,64.945404 
	C18.743927,66.528702 18.668877,68.174606 19.104719,69.671783 
	C19.365412,70.567291 20.425972,71.229942 21.555965,71.982666 
	C21.710518,74.498444 22.880131,75.206337 25.244032,74.724663 
	C26.285419,74.512466 27.405998,74.688919 29.524862,74.688919 
	C25.471136,78.701996 20.453592,76.720558 17.227224,79.962769 
z"/>
<path fill="#1D1D1D" opacity="1.000000" stroke="none" 
	d="
M222.815018,186.791687 
	C221.740341,187.598236 220.714478,188.683594 220.103317,188.486023 
	C216.548309,187.336807 213.090744,185.886185 208.995163,184.303604 
	C210.651245,183.617203 213.157684,182.965149 213.120377,182.532440 
	C212.829819,179.163010 215.366623,179.978210 216.747406,180.219803 
	C217.639587,180.375885 218.267334,182.043335 218.112076,183.785065 
	C219.759842,184.682663 221.407623,185.580261 222.815018,186.791687 
z"/>
<path fill="#262626" opacity="1.000000" stroke="none" 
	d="
M84.863777,74.001389 
	C84.876205,72.366180 84.775574,70.719528 84.939438,69.099640 
	C85.055458,67.952721 85.529228,66.841988 85.843307,65.715103 
	C86.335052,65.881287 86.826797,66.047462 87.318542,66.213638 
	C87.700195,69.291359 88.081848,72.369072 88.559090,76.217636 
	C83.780022,76.217636 77.775635,76.217636 71.771248,76.217636 
	C71.639893,75.846855 71.508545,75.476082 71.377190,75.105301 
	C72.823364,74.286095 74.269531,73.466888 75.949844,73.118507 
	C77.116806,73.963066 78.049614,74.336800 78.982422,74.710533 
	C80.381271,74.753586 81.780121,74.796638 83.845879,74.829742 
	C84.629784,74.546997 84.746780,74.274193 84.863777,74.001389 
z"/>
<path fill="#EAEAEA" opacity="1.000000" stroke="none" 
	d="
M212.959198,110.970695 
	C213.076553,109.448036 213.660370,106.773262 213.231522,106.599632 
	C211.241028,105.793709 208.587128,104.838333 206.923309,105.593857 
	C205.651047,106.171577 205.503937,109.227165 204.891861,111.073463 
	C201.213593,108.987816 201.147583,108.700256 204.309875,104.290901 
	C205.234100,103.590363 205.758026,103.244255 206.281952,102.898148 
	C209.394501,103.104485 212.507034,103.310814 215.826477,104.012833 
	C216.059464,104.676697 216.085587,104.844879 216.111710,105.013069 
	C217.002960,109.635551 216.824402,110.080597 213.304916,111.125427 
	C213.000076,111.001930 212.959198,110.970695 212.959198,110.970695 
z"/>
<path fill="#F3F3F3" opacity="1.000000" stroke="none" 
	d="
M160.974609,108.013168 
	C156.641296,111.657494 152.284546,110.401955 148.441925,107.483727 
	C144.730103,104.664825 145.884308,100.529427 147.200851,96.551399 
	C148.015442,99.849648 147.813934,104.462280 149.919754,106.090233 
	C152.194885,107.849060 156.626144,106.818817 160.540680,107.246033 
	C160.967850,107.662338 160.971237,107.837753 160.974609,108.013168 
z"/>
<path fill="#393939" opacity="1.000000" stroke="none" 
	d="
M218.306763,93.789024 
	C218.208694,88.506073 217.321411,83.065987 218.492966,77.934235 
	C219.260010,78.010406 220.027039,78.086578 220.794083,78.162743 
	C220.938095,80.395775 221.082108,82.628799 221.133514,85.415657 
	C221.040924,85.969490 220.802597,86.221024 220.802597,86.221024 
	C221.181351,87.497871 221.560089,88.774719 222.113510,90.640434 
	C221.993988,90.816795 221.337189,91.785973 220.932739,92.941185 
	C220.344177,93.352585 219.503220,93.577957 218.306763,93.789024 
z"/>
<path fill="#F1F1F1" opacity="1.000000" stroke="none" 
	d="
M127.101471,95.870773 
	C128.323761,96.546204 129.546066,97.221634 129.957199,97.448822 
	C132.628433,95.498741 135.126068,93.675400 137.623703,91.852051 
	C138.030243,92.217888 138.436798,92.583717 138.843338,92.949547 
	C136.747147,95.278221 134.933762,98.042801 132.395218,99.689613 
	C131.552490,100.236328 128.846558,97.910950 126.979820,96.465134 
	C126.967194,96.031639 127.101471,95.870766 127.101471,95.870773 
z"/>
<path fill="#2DA29A" opacity="1.000000" stroke="none" 
	d="
M141.689667,42.059181 
	C144.014175,43.336277 145.996231,44.597446 147.869293,46.374260 
	C145.037155,47.777626 142.313980,48.665352 139.590805,49.553078 
	C139.484955,47.649471 139.379105,45.745869 139.265381,43.306786 
	C139.257492,42.771309 139.379944,42.590633 139.379944,42.590630 
	C140.035706,42.408173 140.691452,42.225712 141.689667,42.059181 
z"/>
<path fill="#EAEAEA" opacity="1.000000" stroke="none" 
	d="
M154.251205,83.969406 
	C157.778412,83.971359 160.852539,83.971359 163.926651,83.971359 
	C163.939255,84.516533 163.951859,85.061707 163.964462,85.606873 
	C159.007263,85.702126 154.030930,86.026512 149.116028,85.615730 
	C148.468704,85.561623 148.135345,81.750969 147.656570,79.680130 
	C148.233490,79.605431 148.810425,79.530731 149.387344,79.456024 
	C149.387344,80.722008 149.387344,81.987991 149.387344,83.644875 
	C150.972153,83.760780 152.385147,83.864120 154.251205,83.969406 
z"/>
<path fill="#898989" opacity="1.000000" stroke="none" 
	d="
M88.244171,40.497704 
	C86.659950,41.184422 84.734810,41.787418 82.766945,42.006454 
	C80.815765,42.223633 78.821541,42.053967 76.489235,42.053967 
	C76.122826,43.348412 75.772789,44.585033 75.422752,45.821659 
	C75.149841,45.807056 74.876938,45.792454 74.604034,45.777851 
	C74.186989,44.025463 73.769951,42.273079 73.287476,40.245754 
	C78.353088,40.245754 83.118813,40.245754 88.244171,40.497704 
z"/>
<path fill="#D9D9D9" opacity="1.000000" stroke="none" 
	d="
M189.978897,93.020805 
	C183.222763,92.997826 183.098495,93.205849 184.549713,102.735443 
	C186.463730,102.837646 188.483276,102.945496 190.502838,103.053337 
	C190.501343,103.226730 190.499832,103.400116 190.498337,103.573509 
	C187.879684,103.573509 185.261032,103.573509 182.208847,103.573509 
	C182.208847,99.840080 182.208847,96.264389 182.208847,92.027046 
	C184.358643,92.140854 186.912674,92.276062 189.732178,92.706795 
	C189.997635,93.002319 189.978897,93.020805 189.978897,93.020805 
z"/>
<path fill="#D9D9D9" opacity="1.000000" stroke="none" 
	d="
M158.106262,188.233078 
	C156.753647,188.694366 155.104462,189.022110 153.455261,189.349854 
	C153.723465,187.838791 153.548477,186.014969 154.349503,184.879929 
	C156.176910,182.290558 158.592682,180.688675 161.906326,183.869553 
	C160.536209,185.250061 154.849487,183.056671 158.106262,188.233078 
z"/>
<path fill="#F0C318" opacity="1.000000" stroke="none" 
	d="
M139.998825,54.478851 
	C142.919464,55.428890 145.840103,56.378925 149.071228,57.579247 
	C146.229706,58.934910 143.077682,60.040287 139.553986,61.086151 
	C139.267319,59.136898 139.352356,57.247162 139.701172,54.972237 
	C139.964935,54.587051 139.998825,54.478851 139.998825,54.478851 
z"/>
<path fill="#636363" opacity="1.000000" stroke="none" 
	d="
M13.255229,71.754868 
	C13.721184,73.543358 13.861842,75.451645 13.856121,77.821472 
	C10.709349,77.773888 7.708956,77.264771 4.368925,76.698021 
	C7.775665,74.778633 10.352798,73.326660 13.255229,71.754868 
z"/>
<path fill="#111111" opacity="1.000000" stroke="none" 
	d="
M23.768057,48.682304 
	C25.870522,48.915722 27.972986,49.149136 30.075451,49.382549 
	C30.151886,49.963120 30.228323,50.543686 30.304758,51.124252 
	C27.141560,52.402225 23.978361,53.680199 20.409763,54.571217 
	C20.438637,52.144638 20.872908,50.105011 21.501904,48.197094 
	C22.387104,48.446636 23.077579,48.564468 23.768057,48.682304 
M24.383030,51.520714 
	C23.822212,51.133419 23.261396,50.746124 22.700581,50.358829 
	C22.583920,50.635464 22.338711,51.137314 22.369810,51.155064 
	C22.865480,51.437981 23.396492,51.658985 24.383030,51.520714 
z"/>
<path fill="#050505" opacity="1.000000" stroke="none" 
	d="
M61.722050,72.711929 
	C61.805557,65.411095 61.932678,65.332909 71.483269,66.763199 
	C70.386024,66.853500 69.289543,66.954918 68.191307,67.031021 
	C67.054482,67.109810 65.915955,67.164055 64.821045,67.226578 
	C64.114479,70.512207 64.406532,74.660881 62.496616,76.423332 
	C60.731037,78.052589 56.606441,77.125443 53.520779,77.324158 
	C53.485855,76.882370 53.450935,76.440582 53.416012,75.998795 
	C55.182579,75.998795 57.051052,76.351524 58.681534,75.880478 
	C59.858524,75.540451 60.719002,74.104828 61.722050,72.711929 
z"/>
<path fill="#C1C1C1" opacity="1.000000" stroke="none" 
	d="
M193.971207,97.027359 
	C201.014648,98.169785 202.115372,99.342354 199.897705,104.842728 
	C199.179031,106.625237 196.552139,107.638390 194.244690,108.698135 
	C195.462173,104.793411 203.637421,101.089272 194.174210,97.304153 
	C193.994644,97.005234 193.971207,97.027359 193.971207,97.027359 
z"/>
<path fill="#F9F9F9" opacity="1.000000" stroke="none" 
	d="
M124.508293,86.013649 
	C124.084541,85.567696 124.125595,85.120529 124.633575,84.332787 
	C130.054276,83.994385 135.008041,83.996559 139.961807,83.998734 
	C140.078033,84.407486 140.194275,84.816238 140.368591,85.538818 
	C135.275482,85.905907 130.124283,85.959167 124.508293,86.013649 
z"/>
<path fill="#111111" opacity="1.000000" stroke="none" 
	d="
M20.016397,39.875248 
	C20.252172,39.631142 20.487947,39.387039 20.952709,39.021248 
	C25.653141,40.012947 25.801361,42.977062 23.809071,46.741692 
	C22.545420,46.929466 21.940413,46.951099 21.175901,46.582153 
	C20.683064,44.086136 20.349730,41.980690 20.016397,39.875248 
z"/>
<path fill="#DE0017" opacity="1.000000" stroke="none" 
	d="
M139.322418,42.071663 
	C139.379944,42.590633 139.257492,42.771309 139.172791,42.837738 
	C138.723770,40.878895 138.047287,38.852882 138.052109,36.828495 
	C138.068253,30.051184 138.327881,23.274454 138.816498,16.215649 
	C139.180786,24.473429 139.222839,33.013062 139.322418,42.071663 
z"/>
<path fill="#111111" opacity="1.000000" stroke="none" 
	d="
M50.002098,67.326508 
	C45.532684,67.134346 41.430569,67.134346 37.328449,67.134346 
	C37.328133,66.738823 37.327816,66.343292 37.327496,65.947769 
	C41.731674,65.947769 46.140373,65.843750 50.536232,66.034988 
	C51.422070,66.073524 52.917049,67.176453 52.976604,67.885597 
	C53.087536,69.206573 52.349979,70.598801 51.965580,71.961372 
	C51.567619,71.898811 51.169655,71.836243 50.771690,71.773674 
	C50.637592,70.355347 50.503494,68.937012 50.002098,67.326508 
z"/>
<path fill="#EDEDED" opacity="1.000000" stroke="none" 
	d="
M229.331940,110.690399 
	C228.660095,111.456337 227.189941,112.464996 227.049194,112.304909 
	C225.250610,110.259117 223.642441,108.045959 221.985901,105.875305 
	C222.397385,105.536926 222.808853,105.198547 223.220337,104.860168 
	C225.197388,106.703423 227.174438,108.546669 229.331940,110.690399 
z"/>
<path fill="#D5D5D5" opacity="1.000000" stroke="none" 
	d="
M19.639069,40.100708 
	C20.349730,41.980690 20.683064,44.086136 21.233559,46.856987 
	C21.402874,47.703392 21.355026,47.884388 21.307178,48.065388 
	C20.872908,50.105011 20.438637,52.144638 20.044865,54.570206 
	C19.907402,54.972183 19.729435,54.988220 19.283443,55.005783 
	C19.097525,50.113598 19.179632,45.219883 19.639069,40.100708 
z"/>
<path fill="#898989" opacity="1.000000" stroke="none" 
	d="
M41.230690,42.071846 
	C39.600216,41.956776 38.430172,41.841602 37.260132,41.726429 
	C37.278419,41.379993 37.296707,41.033554 37.314995,40.687119 
	C41.524284,40.687119 45.733578,40.687119 49.942867,40.687119 
	C49.965893,41.148663 49.988914,41.610203 50.011940,42.071747 
	C47.238335,42.071747 44.464729,42.071747 41.230690,42.071846 
z"/>
<path fill="#EAEAEA" opacity="1.000000" stroke="none" 
	d="
M161.840057,95.189178 
	C158.886368,94.233742 155.932693,93.278305 152.617813,92.206024 
	C155.875244,89.422974 158.231644,90.064629 162.055298,94.563477 
	C162.005478,95.009949 161.840057,95.189178 161.840057,95.189178 
z"/>
<path fill="#EAEAEA" opacity="1.000000" stroke="none" 
	d="
M150.925934,76.173599 
	C152.225098,73.067291 153.398438,70.266685 155.088867,66.231857 
	C156.371155,69.225578 158.430267,70.567963 154.833664,72.503418 
	C153.330292,73.312439 152.685837,75.711952 151.633011,77.377022 
	C151.565948,77.483078 151.217438,77.547653 151.212601,77.536789 
	C151.058868,77.191528 150.931473,76.834534 150.925934,76.173599 
z"/>
<path fill="#D5D5D5" opacity="1.000000" stroke="none" 
	d="
M206.173859,102.459526 
	C205.758026,103.244255 205.234100,103.590363 204.386200,103.939819 
	C204.062241,100.056801 204.062241,96.170418 204.062241,92.284042 
	C204.540176,92.224922 205.018127,92.165794 205.496063,92.106674 
	C205.685959,95.411415 205.875854,98.716164 206.173859,102.459526 
z"/>
<path fill="#A1A1A1" opacity="1.000000" stroke="none" 
	d="
M37.568130,132.861237 
	C37.885590,136.876892 37.885590,140.829590 37.885590,144.782303 
	C37.228275,144.784943 36.570957,144.787567 35.913643,144.790207 
	C35.913643,141.171448 35.913643,137.552673 35.945457,133.475067 
	C36.401741,132.943588 36.826206,132.870941 37.568130,132.861237 
z"/>
<path fill="#EAEAEA" opacity="1.000000" stroke="none" 
	d="
M161.293732,107.861847 
	C160.971237,107.837753 160.967850,107.662338 160.944672,107.224052 
	C161.598862,103.889656 162.272873,100.818130 162.907043,97.928223 
	C166.052063,100.018082 165.903305,101.860352 161.293732,107.861847 
z"/>
<path fill="#D5D5D5" opacity="1.000000" stroke="none" 
	d="
M231.951035,104.002266 
	C231.951752,103.276474 231.952469,102.550690 231.982422,101.402031 
	C232.011673,100.979164 232.131516,100.849487 232.131516,100.849487 
	C232.754807,99.738533 233.597046,98.691872 233.946808,97.500610 
	C234.399475,95.958961 234.459167,94.301926 235.059280,92.837051 
	C235.059280,96.724495 235.059280,100.611946 235.059280,104.499390 
	C234.558365,104.456787 234.057449,104.414185 233.016815,104.183319 
	C232.301758,103.997452 232.126404,103.999863 231.951035,104.002266 
z"/>
<path fill="#D5D5D5" opacity="1.000000" stroke="none" 
	d="
M98.801941,103.322189 
	C97.312256,103.230042 94.186180,103.190712 94.059029,102.553230 
	C93.504181,99.771431 93.820457,96.815872 93.820457,93.250099 
	C96.967773,96.581833 91.442947,102.495125 98.801941,103.322189 
z"/>
<path fill="#C1C1C1" opacity="1.000000" stroke="none" 
	d="
M214.182922,84.857285 
	C214.614716,86.997803 214.715866,89.124474 214.675766,91.688080 
	C211.695480,89.942520 209.690903,87.681847 214.182922,84.857285 
z"/>
<path fill="#EAEAEA" opacity="1.000000" stroke="none" 
	d="
M162.434540,81.921989 
	C160.655502,80.224144 158.800247,78.201241 156.944977,76.178337 
	C157.627060,75.739601 158.309158,75.300865 158.991257,74.862129 
	C160.113602,77.107063 161.235962,79.351997 162.434540,81.921989 
z"/>
<path fill="#F1F1F1" opacity="1.000000" stroke="none" 
	d="
M128.301025,105.088699 
	C127.453979,106.067596 126.795113,106.781754 125.979851,107.665428 
	C125.097687,105.781731 124.355675,104.197289 123.613663,102.612846 
	C123.811035,102.340485 124.008400,102.068123 124.205772,101.795753 
	C125.633575,102.805161 127.061386,103.814560 128.301025,105.088699 
z"/>
<path fill="#EDEDED" opacity="1.000000" stroke="none" 
	d="
M226.987503,96.008484 
	C226.443771,97.781746 225.900055,99.555000 225.356323,101.328262 
	C225.044464,101.350609 224.732605,101.372948 224.420746,101.395287 
	C224.420746,99.442680 224.420746,97.490067 225.038162,95.268997 
	C226.111816,94.994308 226.568069,94.988091 227.024307,94.981873 
	C227.024307,94.981865 227.001831,95.000916 226.999435,95.247345 
	C226.993851,95.665344 226.990677,95.836914 226.987503,96.008484 
z"/>
<path fill="#D9D9D9" opacity="1.000000" stroke="none" 
	d="
M115.048706,96.385406 
	C114.630081,97.663773 113.949135,98.720589 113.268196,99.777405 
	C112.887756,99.325851 112.143448,98.513000 112.180336,98.475838 
	C112.996933,97.653458 113.899879,96.916817 115.048706,96.385406 
z"/>
<path fill="#C1C1C1" opacity="1.000000" stroke="none" 
	d="
M209.011627,87.188873 
	C209.060944,88.534508 208.900589,90.075432 208.740234,91.616356 
	C207.991180,91.388039 207.242126,91.159729 206.493073,90.931419 
	C207.262695,89.749001 208.032318,88.566582 209.011627,87.188873 
z"/>
<path fill="#EAEAEA" opacity="1.000000" stroke="none" 
	d="
M53.126488,22.131287 
	C54.064976,21.760086 54.896660,21.734943 55.728348,21.709803 
	C55.456974,22.968386 55.185596,24.226971 54.914223,25.485554 
	C54.552322,25.476238 54.190418,25.466921 53.828518,25.457603 
	C53.558907,24.464184 53.289295,23.470764 53.126488,22.131287 
z"/>
<path fill="#636363" opacity="1.000000" stroke="none" 
	d="
M44.847340,25.169495 
	C43.592880,24.936003 42.338425,24.702511 41.936653,24.627728 
	C43.001450,23.485174 44.348183,22.040100 45.865223,20.412283 
	C45.568485,21.928413 45.314560,23.225790 44.932968,24.845959 
	C44.805298,25.168747 44.847340,25.169493 44.847340,25.169495 
z"/>
<path fill="#EAEAEA" opacity="1.000000" stroke="none" 
	d="
M148.814911,94.481033 
	C149.137177,93.351524 149.771820,92.198845 150.406464,91.046158 
	C150.918472,91.534836 151.430466,92.023521 151.942474,92.512199 
	C151.004074,93.160751 150.065674,93.809296 148.814911,94.481033 
z"/>
<path fill="#090909" opacity="1.000000" stroke="none" 
	d="
M59.851635,143.832565 
	C59.889942,140.586166 59.928253,137.339767 59.978958,133.652283 
	C60.155838,133.148178 60.320324,133.085159 60.745056,133.067795 
	C60.897091,136.572510 60.788883,140.031555 60.342979,143.743195 
	C60.005283,143.995789 59.851635,143.832565 59.851635,143.832565 
z"/>
<path fill="#F1F1F1" opacity="1.000000" stroke="none" 
	d="
M123.367958,91.750397 
	C123.737442,93.013649 123.802185,94.209068 123.866928,95.404480 
	C123.295074,95.408684 122.723221,95.412880 122.151367,95.417084 
	C122.455315,94.172234 122.759270,92.927391 123.367958,91.750397 
z"/>
<path fill="#F3F3F3" opacity="1.000000" stroke="none" 
	d="
M152.553162,103.436798 
	C152.587891,102.608215 152.851852,102.011856 153.115814,101.415497 
	C153.604950,101.910355 154.094101,102.405212 154.583237,102.900078 
	C153.982971,103.156395 153.382690,103.412712 152.553162,103.436798 
z"/>
<path fill="#D9D9D9" opacity="1.000000" stroke="none" 
	d="
M116.467285,103.684814 
	C115.845016,103.034409 115.500221,102.534889 114.279160,100.765862 
	C116.747215,102.120720 117.946861,102.779282 119.871277,103.835701 
	C118.279274,103.835701 117.512016,103.835701 116.467285,103.684814 
z"/>
<path fill="#D9D9D9" opacity="1.000000" stroke="none" 
	d="
M89.987091,103.806229 
	C88.432846,103.935394 87.175400,103.935394 85.917961,103.935394 
	C85.909409,103.711296 85.900856,103.487198 85.892303,103.263100 
	C87.376762,103.129387 88.860985,102.992561 90.346947,102.878464 
	C90.387444,102.875351 90.498009,103.122948 90.484306,103.243195 
	C90.467178,103.393486 90.355034,103.532936 89.987091,103.806229 
z"/>
<path fill="#F9F9F9" opacity="1.000000" stroke="none" 
	d="
M210.856750,93.824860 
	C211.591766,93.852791 212.112671,94.097412 212.633560,94.342041 
	C212.217636,94.762474 211.801712,95.182899 211.385773,95.603325 
	C211.138062,95.082726 210.890350,94.562134 210.856750,93.824860 
z"/>
<path fill="#EDEDED" opacity="1.000000" stroke="none" 
	d="
M231.557343,103.989502 
	C232.126404,103.999863 232.301758,103.997452 232.740021,104.004173 
	C231.104385,104.455009 229.205811,104.896721 227.307251,105.338432 
	C227.246658,104.884529 227.186066,104.430634 227.125473,103.976730 
	C228.471527,103.976730 229.817581,103.976730 231.557343,103.989502 
z"/>
<path fill="#1D1D1D" opacity="1.000000" stroke="none" 
	d="
M21.501904,48.197094 
	C21.355026,47.884388 21.402874,47.703392 21.393063,47.247566 
	C21.940413,46.951099 22.545420,46.929466 23.453041,46.917515 
	C23.661665,47.220390 23.567671,47.513588 23.620869,48.244545 
	C23.077579,48.564468 22.387104,48.446636 21.501904,48.197094 
z"/>
<path fill="#F1F1F1" opacity="1.000000" stroke="none" 
	d="
M78.808990,74.519760 
	C78.049614,74.336800 77.116806,73.963066 76.318100,73.276093 
	C77.179993,73.418228 77.907784,73.873611 78.808990,74.519760 
z"/>
<path fill="#EAEAEA" opacity="1.000000" stroke="none" 
	d="
M60.684170,17.450905 
	C60.414463,18.052288 60.023220,18.372137 59.631977,18.691988 
	C59.460258,18.152227 59.288536,17.612465 59.116814,17.072704 
	C59.598755,17.104927 60.080692,17.137152 60.684170,17.450905 
z"/>
<path fill="#EAEAEA" opacity="1.000000" stroke="none" 
	d="
M208.971909,112.721680 
	C208.353607,112.308685 208.031723,111.853996 207.709854,111.399315 
	C208.153824,111.323029 208.597809,111.246742 209.041779,111.170456 
	C209.117310,111.673630 209.192825,112.176804 208.971909,112.721680 
z"/>
<path fill="#D5D5D5" opacity="1.000000" stroke="none" 
	d="
M227.026978,94.647079 
	C226.568069,94.988091 226.111816,94.994308 225.312714,95.001137 
	C224.958084,94.305412 224.946304,93.609085 224.946518,92.564682 
	C225.105301,92.109932 225.252075,92.003258 225.671005,91.896378 
	C226.305328,92.701546 226.667480,93.506920 227.026978,94.647079 
z"/>
<path fill="#D9D9D9" opacity="1.000000" stroke="none" 
	d="
M192.738556,106.401871 
	C192.456543,107.046211 192.036575,107.390427 191.616608,107.734634 
	C191.423660,107.145615 191.230698,106.556602 191.037720,105.967590 
	C191.558670,106.012306 192.079636,106.057022 192.738556,106.401871 
z"/>
<path fill="#636363" opacity="1.000000" stroke="none" 
	d="
M87.528435,187.920807 
	C87.993553,188.469498 88.075333,189.011429 88.157120,189.553375 
	C87.774582,189.566116 87.392052,189.578857 87.009521,189.591583 
	C87.054710,189.032410 87.099907,188.473236 87.528435,187.920807 
z"/>
<path fill="#262626" opacity="1.000000" stroke="none" 
	d="
M193.295197,188.705688 
	C193.014191,187.855743 193.080841,186.941162 193.147507,186.026566 
	C193.413239,186.053070 193.678970,186.079559 193.944717,186.106064 
	C193.844086,186.951065 193.743469,187.796066 193.295197,188.705688 
z"/>
<path fill="#1D1D1D" opacity="1.000000" stroke="none" 
	d="
M58.033127,186.316360 
	C57.790768,187.199890 57.558056,187.666245 57.325344,188.132584 
	C57.098232,188.066589 56.871117,188.000580 56.644005,187.934570 
	C56.850777,186.817917 57.057549,185.701263 57.420616,183.740540 
	C57.794979,185.039413 57.918880,185.469299 58.033127,186.316360 
z"/>
<path fill="#F1F1F1" opacity="1.000000" stroke="none" 
	d="
M78.733246,70.350250 
	C78.982124,70.906494 78.982124,71.522163 78.982124,72.137840 
	C78.751480,72.128761 78.520836,72.119675 78.290192,72.110596 
	C78.354912,71.543625 78.419640,70.976646 78.733246,70.350250 
z"/>
<path fill="#D9D9D9" opacity="1.000000" stroke="none" 
	d="
M111.484314,93.588791 
	C111.437759,94.070175 111.210831,94.360191 110.983902,94.650208 
	C110.794449,94.450317 110.604996,94.250427 110.415535,94.050537 
	C110.711670,93.832832 111.007805,93.615128 111.484314,93.588791 
z"/>
<path fill="#010101" opacity="1.000000" stroke="none" 
	d="
M116.972443,189.895660 
	C116.635300,189.712036 116.314873,189.167374 115.994453,188.622726 
	C116.204147,188.513275 116.413834,188.403824 116.623528,188.294373 
	C116.745415,188.707794 116.867294,189.121216 116.972443,189.895660 
z"/>
<path fill="#D5D5D5" opacity="1.000000" stroke="none" 
	d="
M237.286530,107.606277 
	C237.762161,107.826881 238.048691,108.254364 238.335220,108.681847 
	C237.922623,108.392288 237.510010,108.102722 237.286530,107.606277 
z"/>
<path fill="#F9F9F9" opacity="1.000000" stroke="none" 
	d="
M220.695953,99.863480 
	C220.389755,100.052528 220.052200,100.027267 219.714661,100.002007 
	C219.786270,99.766769 219.857895,99.531540 219.929520,99.296310 
	C220.174545,99.413933 220.419571,99.531548 220.695953,99.863480 
z"/>
<path fill="#F1F1F1" opacity="1.000000" stroke="none" 
	d="
M126.899376,96.111496 
	C126.353172,95.744278 125.874779,95.297203 125.396393,94.850121 
	C125.870438,95.040237 126.344490,95.230362 126.960007,95.645622 
	C127.101471,95.870766 126.967194,96.031639 126.899376,96.111496 
z"/>
<path fill="#C1C1C1" opacity="1.000000" stroke="none" 
	d="
M194.007477,96.996292 
	C193.726822,96.320496 193.433334,95.653633 193.139832,94.986778 
	C193.349533,94.918213 193.559250,94.849648 193.768951,94.781082 
	C193.863464,95.328163 193.957962,95.875244 194.011841,96.724838 
	C193.971207,97.027359 193.994644,97.005234 194.007477,96.996292 
z"/>
<path fill="#EAEAEA" opacity="1.000000" stroke="none" 
	d="
M55.751781,19.349335 
	C56.017872,19.365395 56.162502,19.505482 56.307137,19.645569 
	C56.081532,19.588167 55.855927,19.530766 55.751781,19.349335 
z"/>
<path fill="#EAEAEA" opacity="1.000000" stroke="none" 
	d="
M213.018768,111.019592 
	C212.894241,111.471725 212.751022,111.906197 212.607788,112.340660 
	C212.585709,111.968781 212.563614,111.596893 212.750366,111.097855 
	C212.959198,110.970695 213.000076,111.001930 213.018768,111.019592 
z"/>
<path fill="#898989" opacity="1.000000" stroke="none" 
	d="
M55.038460,186.935455 
	C54.787216,187.200836 54.467476,187.167145 54.147739,187.133453 
	C54.211834,186.881653 54.275925,186.629852 54.340015,186.378036 
	C54.549999,186.464142 54.759983,186.550262 55.038460,186.935455 
z"/>
<path fill="#F1F1F1" opacity="1.000000" stroke="none" 
	d="
M81.773972,69.988220 
	C81.594742,70.107086 81.413780,70.049065 81.232811,69.991043 
	C81.412621,69.931145 81.592422,69.871239 81.773972,69.988220 
z"/>
<path fill="#D9D9D9" opacity="1.000000" stroke="none" 
	d="
M190.007721,92.994781 
	C190.133499,93.426338 190.249176,93.865425 190.364838,94.304512 
	C190.239731,94.035164 190.114609,93.765808 189.984192,93.258636 
	C189.978897,93.020805 189.997635,93.002319 190.007721,92.994781 
z"/>
<path fill="#F9F9F9" opacity="1.000000" stroke="none" 
	d="
M216.350220,104.988075 
	C216.085587,104.844879 216.059464,104.676697 216.020020,104.253548 
	C216.436081,104.146019 216.865479,104.293457 217.294861,104.440895 
	C217.059479,104.614960 216.824112,104.789017 216.350220,104.988075 
z"/>
<path fill="#F1F1F1" opacity="1.000000" stroke="none" 
	d="
M130.602722,102.287498 
	C130.436203,102.156998 130.411636,101.930847 130.387085,101.704689 
	C130.506287,101.867073 130.625473,102.029457 130.602722,102.287498 
z"/>
<path fill="#D5D5D5" opacity="1.000000" stroke="none" 
	d="
M92.464905,92.527977 
	C92.431908,92.475838 92.497894,92.580116 92.464905,92.527977 
z"/>
<path fill="#636363" opacity="1.000000" stroke="none" 
	d="
M44.786175,25.184340 
	C44.767052,25.199932 45.133385,25.099623 45.133385,25.099623 
	C45.133385,25.099623 45.067562,25.069223 44.957451,25.119358 
	C44.847340,25.169493 44.805298,25.168747 44.786175,25.184340 
z"/>
<path fill="#FAEDEE" opacity="1.000000" stroke="none" 
	d="
M150.108322,38.351181 
	C150.170914,38.169167 150.333725,38.124329 150.745865,38.124222 
	C150.732971,38.275421 150.470764,38.381889 150.108322,38.351181 
z"/>
<path fill="#F3F3F3" opacity="1.000000" stroke="none" 
	d="
M102.447151,185.535416 
	C102.410851,185.476196 102.483452,185.594635 102.447151,185.535416 
z"/>
<path fill="#D5D5D5" opacity="1.000000" stroke="none" 
	d="
M231.947495,101.039787 
	C231.778748,100.882866 231.674179,100.665329 231.569611,100.447784 
	C231.693954,100.483078 231.818298,100.518379 232.037079,100.701584 
	C232.131516,100.849487 232.011673,100.979164 231.947495,101.039787 
z"/>
<path fill="#E7E7E7" opacity="1.000000" stroke="none" 
	d="
M53.343994,184.637268 
	C53.319149,184.407425 53.412457,184.323898 53.505764,184.240387 
	C53.584255,184.337692 53.729958,184.440598 53.722416,184.530716 
	C53.714813,184.621628 53.555172,184.699844 53.343994,184.637268 
z"/>
<path fill="#F1F1F1" opacity="1.000000" stroke="none" 
	d="
M84.687752,74.075005 
	C84.746780,74.274193 84.629784,74.546997 84.261536,74.765045 
	C84.116455,74.468605 84.283600,74.281387 84.687752,74.075005 
z"/>
<path fill="#111111" opacity="1.000000" stroke="none" 
	d="
M245.251816,174.779022 
	C245.061172,174.426804 245.209671,174.233109 245.631165,174.056244 
	C245.707062,174.290131 245.602646,174.578278 245.251816,174.779022 
z"/>
<path fill="#D5D5D5" opacity="1.000000" stroke="none" 
	d="
M228.924942,97.085312 
	C228.580658,97.021042 228.309586,96.844429 228.055847,96.276718 
	C227.999985,95.997978 228.095795,95.889397 228.095795,95.889397 
	C228.360443,96.082054 228.625076,96.274712 228.944031,96.736160 
	C228.998352,97.004944 228.924942,97.085312 228.924942,97.085312 
z"/>
<path fill="#111111" opacity="1.000000" stroke="none" 
	d="
M203.153076,174.258987 
	C203.449509,174.050003 203.663269,174.174011 203.913513,174.540497 
	C203.698318,174.647766 203.405121,174.584091 203.153076,174.258987 
z"/>
<path fill="#D9D9D9" opacity="1.000000" stroke="none" 
	d="
M108.479927,92.451706 
	C108.537323,92.421234 108.422531,92.482170 108.479927,92.451706 
z"/>
<path fill="#D9D9D9" opacity="1.000000" stroke="none" 
	d="
M117.949959,92.958130 
	C118.082672,92.950150 118.215385,92.942162 118.174957,92.969551 
	C118.001808,93.004929 117.949959,92.958138 117.949959,92.958130 
z"/>
<path fill="#D9D9D9" opacity="1.000000" stroke="none" 
	d="
M116.923241,93.936485 
	C117.020782,93.606369 117.212387,93.345291 117.723999,93.055695 
	C117.949959,92.958138 118.001808,93.004929 118.026123,93.031754 
	C117.982071,93.399857 117.808861,93.675186 117.267624,93.947678 
	C117.004448,94.010788 116.923241,93.936485 116.923241,93.936485 
z"/>
<path fill="#D5D5D5" opacity="1.000000" stroke="none" 
	d="
M230.060989,97.929375 
	C230.180634,98.136520 230.300278,98.343666 230.419922,98.550812 
	C230.294403,98.507225 230.168884,98.463646 230.018570,98.211655 
	C229.993774,98.003250 230.060989,97.929375 230.060989,97.929375 
z"/>
<path fill="#D9D9D9" opacity="1.000000" stroke="none" 
	d="
M117.041473,94.051498 
	C116.930763,94.095032 116.783043,94.097839 116.779282,94.018570 
	C116.923241,93.936485 117.004448,94.010788 117.041473,94.051498 
z"/>
<path fill="#D5D5D5" opacity="1.000000" stroke="none" 
	d="
M229.038361,96.968048 
	C229.416367,97.006485 229.681198,97.188347 229.966919,97.703056 
	C230.060989,97.929375 229.993774,98.003250 229.954895,98.039001 
	C229.571762,98.011024 229.302917,97.833298 229.017212,97.313446 
	C228.924942,97.085312 228.998352,97.004944 229.038361,96.968048 
z"/>
<path fill="#F3F3F3" opacity="1.000000" stroke="none" 
	d="
M153.530762,97.547020 
	C153.477280,97.578613 153.584259,97.515427 153.530762,97.547020 
z"/>
<path fill="#EAEAEA" opacity="1.000000" stroke="none" 
	d="
M162.091797,94.923798 
	C162.344742,95.012085 162.511368,95.186539 162.678009,95.360985 
	C162.478119,95.403938 162.278229,95.446892 161.959198,95.339516 
	C161.840057,95.189178 162.005478,95.009949 162.091797,94.923798 
z"/>
<path fill="#D5D5D5" opacity="1.000000" stroke="none" 
	d="
M227.215149,96.034210 
	C226.990677,95.836914 226.993851,95.665344 227.007614,95.236526 
	C227.302002,95.134842 227.585815,95.290405 227.982712,95.667679 
	C228.095795,95.889397 227.999985,95.997978 227.949234,96.052963 
	C227.898483,96.107941 227.442810,96.059929 227.215149,96.034210 
z"/>
<path fill="#F3F3F3" opacity="1.000000" stroke="none" 
	d="
M149.482758,146.114441 
	C148.808884,143.862320 148.634064,141.763046 148.112045,139.753967 
	C147.750854,138.363892 146.910522,137.098328 146.284286,135.777130 
	C145.858032,135.941849 145.431793,136.106552 145.005539,136.271255 
	C145.005539,144.073776 145.005539,151.876297 145.005539,159.992813 
	C140.662933,159.263000 138.427673,157.529160 138.614517,152.877716 
	C138.920135,145.268921 138.697159,137.638901 138.697159,128.861099 
	C143.271851,130.802216 147.152298,132.153763 150.742493,134.053787 
	C154.451218,136.016541 154.555801,139.811829 153.731247,143.258820 
	C153.431122,144.513458 151.189514,145.303650 149.482758,146.114441 
z"/>
<path fill="#E7E7E7" opacity="1.000000" stroke="none" 
	d="
M161.157928,150.631210 
	C163.771439,152.835449 162.327240,153.954239 160.456604,154.736862 
	C156.232620,156.504013 151.955429,158.143967 147.343002,159.266953 
	C148.603226,154.009766 154.219727,155.043015 157.286346,151.302673 
	C154.061951,151.727020 150.837570,152.151367 146.752884,152.688934 
	C147.346664,151.407425 147.579926,149.808716 148.284088,149.563766 
	C152.541382,148.082886 156.902145,146.969101 161.157928,150.631210 
z"/>
<path fill="#F1F1F1" opacity="1.000000" stroke="none" 
	d="
M131.178406,157.410400 
	C129.982224,157.245148 129.031403,157.335342 128.373016,156.939331 
	C126.924866,156.068268 125.624466,154.951569 124.263748,153.935135 
	C125.288536,152.717041 126.080841,151.041000 127.387291,150.377747 
	C129.978333,149.062378 132.852966,148.305725 135.794098,147.252365 
	C137.860687,152.958511 131.675064,150.922424 130.676910,153.854843 
	C132.652039,153.991913 134.492340,154.119629 136.332657,154.247345 
	C136.486145,154.764984 136.639648,155.282623 136.793152,155.800262 
	C135.047577,156.348618 133.301987,156.896973 131.178406,157.410400 
z"/>
<path fill="#F3F3F3" opacity="1.000000" stroke="none" 
	d="
M58.292667,157.923035 
	C54.343292,154.810989 53.994450,151.146912 57.377281,150.321167 
	C58.998898,149.925339 62.264908,151.182068 62.820004,152.511383 
	C64.163567,155.728912 62.323353,157.836929 58.292667,157.923035 
z"/>
<path fill="#F3F3F3" opacity="1.000000" stroke="none" 
	d="
M40.952621,153.119614 
	C40.671051,157.055969 38.654213,158.932404 35.390041,157.516525 
	C34.089470,156.952377 33.352551,154.199493 33.175549,152.364258 
	C33.102936,151.611328 35.357925,149.791779 36.254013,149.969604 
	C37.922874,150.300797 39.371941,151.739578 40.952621,153.119614 
z"/>
<path fill="#090909" opacity="1.000000" stroke="none" 
	d="
M28.508781,147.541473 
	C27.108246,147.979126 25.911924,148.212158 24.716358,148.445023 
	C23.265774,139.731522 23.820467,138.110214 28.712992,138.301376 
	C28.712992,141.297394 28.712992,144.317123 28.508781,147.541473 
z"/>
<path fill="#090909" opacity="1.000000" stroke="none" 
	d="
M58.141182,146.156158 
	C51.836433,146.573822 45.531685,146.991486 39.226936,147.409134 
	C39.212017,146.911530 39.197094,146.413910 39.182175,145.916290 
	C45.090126,145.916290 50.998081,145.916290 57.445641,145.955643 
	C57.985245,145.994995 58.141182,146.156158 58.141182,146.156158 
z"/>
<path fill="#090909" opacity="1.000000" stroke="none" 
	d="
M69.396362,145.672394 
	C70.693832,146.192307 71.790527,146.946304 73.221970,147.930450 
	C71.357674,148.652451 70.210899,149.096573 68.578018,149.728958 
	C68.810646,148.289078 69.003113,147.097763 69.396362,145.672394 
z"/>
<path fill="#090909" opacity="1.000000" stroke="none" 
	d="
M67.521278,143.386841 
	C66.226265,143.930374 65.078995,144.229828 63.565994,144.624741 
	C63.858673,143.185974 64.123871,141.882324 64.576828,139.655640 
	C65.938103,141.190781 66.803558,142.166779 67.521278,143.386841 
z"/>
<path fill="#090909" opacity="1.000000" stroke="none" 
	d="
M71.953949,139.032547 
	C70.949142,139.611877 70.208763,139.983627 69.468384,140.355377 
	C69.718231,139.402481 69.968079,138.449570 70.217934,137.496674 
	C70.884750,137.939438 71.551559,138.382202 71.953949,139.032547 
z"/>
<path fill="#090909" opacity="1.000000" stroke="none" 
	d="
M32.258179,141.728577 
	C32.640686,142.567642 32.734406,143.443069 32.828125,144.318512 
	C32.428871,144.292160 32.029617,144.265808 31.630362,144.239456 
	C31.743370,143.414627 31.856380,142.589798 32.258179,141.728577 
z"/>
<path fill="#090909" opacity="1.000000" stroke="none" 
	d="
M73.891556,141.888718 
	C74.238014,141.403702 74.584473,140.918686 74.930931,140.433670 
	C75.143768,140.618088 75.356598,140.802521 75.569435,140.986938 
	C75.274376,141.322372 74.979317,141.657806 74.347359,142.000732 
	C74.010460,142.008209 73.891556,141.888718 73.891556,141.888718 
z"/>
<path fill="#090909" opacity="1.000000" stroke="none" 
	d="
M74.071198,142.066650 
	C73.689178,142.614182 73.246429,143.103271 72.803680,143.592377 
	C72.980446,143.068954 73.157211,142.545532 73.612762,141.955414 
	C73.891556,141.888718 74.010460,142.008209 74.071198,142.066650 
z"/>
<path fill="#090909" opacity="1.000000" stroke="none" 
	d="
M20.614300,143.535889 
	C21.065121,143.651733 21.342211,143.937012 21.597300,144.240768 
	C21.604342,144.249146 21.375240,144.455872 21.256252,144.570099 
	C20.983341,144.282684 20.710432,143.995270 20.614300,143.535889 
z"/>
<path fill="#090909" opacity="1.000000" stroke="none" 
	d="
M60.087212,144.072266 
	C59.695015,144.765305 59.220894,145.381866 58.443977,146.077286 
	C58.141182,146.156158 57.985245,145.994995 57.901054,145.919373 
	C58.295139,145.227707 58.773411,144.611664 59.551659,143.914093 
	C59.851635,143.832565 60.005283,143.995789 60.087212,144.072266 
z"/>
<path fill="#EAEAEA" opacity="1.000000" stroke="none" 
	d="
M233.792572,48.783714 
	C228.732712,50.462086 224.046753,52.014473 217.909531,54.047638 
	C218.960785,51.716282 219.238434,49.704494 220.098770,49.413132 
	C227.065247,47.053787 234.141068,45.017307 241.183548,42.882378 
	C241.483765,43.678852 241.783981,44.475327 242.084183,45.271801 
	C239.444946,46.400448 236.805695,47.529091 233.792572,48.783714 
z"/>
<path fill="#EAEAEA" opacity="1.000000" stroke="none" 
	d="
M206.729767,44.783424 
	C203.618683,49.165169 194.938492,51.643700 190.147171,48.377972 
	C195.486053,46.625084 200.823700,44.868244 206.181274,43.174469 
	C206.235794,43.157234 206.553284,43.971771 206.729767,44.783424 
z"/>
<path fill="#F3F3F3" opacity="1.000000" stroke="none" 
	d="
M140.240631,54.185616 
	C139.998825,54.478851 139.964935,54.587051 139.943268,54.565613 
	C139.730469,53.104542 139.539352,51.664909 139.469513,49.889175 
	C142.313980,48.665352 145.037155,47.777626 148.076141,46.705334 
	C153.026108,45.386234 157.660263,44.251705 162.294434,43.117176 
	C162.533920,43.753635 162.773422,44.390099 163.012924,45.026558 
	C161.469849,45.819435 159.926773,46.612309 158.130722,47.670639 
	C152.079300,49.921520 146.280869,51.906948 140.240631,54.185616 
z"/>
<path fill="#F3F3F3" opacity="1.000000" stroke="none" 
	d="
M114.049248,46.914955 
	C118.335045,45.446030 122.268875,44.133438 126.583084,42.730995 
	C126.785240,44.481888 126.607025,46.322624 126.216934,48.501846 
	C121.118622,49.503784 116.232185,50.167240 111.345757,50.830700 
	C111.189407,50.256016 111.033058,49.681335 110.876709,49.106651 
	C111.816902,48.428196 112.757095,47.749741 114.049248,46.914955 
z"/>
<path fill="#F9F9F9" opacity="1.000000" stroke="none" 
	d="
M206.008972,161.676453 
	C206.008835,150.594864 206.008835,139.984695 206.008835,129.056870 
	C218.252548,129.056870 230.287338,129.056870 242.677704,129.056870 
	C242.677704,140.522385 242.677704,152.222061 242.677704,164.610458 
	C234.602448,164.610458 226.370377,164.610718 218.138321,164.610321 
	C214.982635,164.610168 211.808762,164.796692 208.682175,164.494614 
	C207.724518,164.402084 206.896515,162.967758 206.008972,161.676453 
M228.826889,156.045059 
	C232.082291,154.861526 235.337692,153.677994 238.593094,152.494461 
	C238.528564,151.856964 238.464020,151.219452 238.399475,150.581955 
	C235.600098,150.059586 232.800735,149.537201 230.036163,148.579727 
	C230.036163,148.579727 230.060806,148.143906 230.798828,147.847382 
	C234.269348,140.994141 231.900345,138.118774 220.997192,136.230011 
	C220.997192,141.570465 221.245163,146.882629 220.906219,152.157074 
	C220.695587,155.434601 222.052719,156.637573 225.615036,157.096237 
	C226.442398,156.818375 227.269775,156.540527 228.826889,156.045059 
M215.003662,154.712784 
	C216.444229,154.777908 217.884811,154.843018 219.243103,154.904419 
	C219.453217,152.471008 219.628693,150.438721 219.841858,147.970047 
	C216.543823,149.274109 213.500427,150.477493 210.457031,151.680878 
	C210.538315,152.158798 210.619583,152.636719 210.700851,153.114639 
	C211.869766,153.567154 213.038696,154.019653 215.003662,154.712784 
z"/>
<path fill="#111111" opacity="1.000000" stroke="none" 
	d="
M237.358093,172.081757 
	C235.477341,171.757568 233.845291,171.152786 231.654877,170.341110 
	C233.603775,168.949783 234.861313,168.052032 237.145782,166.421143 
	C237.344193,168.736588 237.475510,170.268860 237.358093,172.081757 
z"/>
<path fill="#111111" opacity="1.000000" stroke="none" 
	d="
M221.059418,170.601715 
	C219.794968,171.330444 218.403183,172.234970 217.325470,171.950333 
	C216.616623,171.763123 216.360703,169.861053 215.901947,168.726883 
	C216.417923,168.364716 216.933884,168.002548 217.449844,167.640381 
	C217.848145,168.396164 218.246445,169.151947 218.629425,169.878632 
	C218.871735,169.180099 219.129349,168.437408 219.715012,166.749039 
	C220.363586,168.441193 220.714523,169.356812 221.059418,170.601715 
z"/>
<path fill="#111111" opacity="1.000000" stroke="none" 
	d="
M242.924438,171.669586 
	C239.507874,173.117889 239.507874,173.117889 239.411270,168.469635 
	C242.332535,167.191696 243.108002,168.640671 242.924438,171.669586 
z"/>
<path fill="#111111" opacity="1.000000" stroke="none" 
	d="
M225.622681,169.408127 
	C226.187469,168.770905 226.840668,168.429977 227.493851,168.089050 
	C227.493851,169.575531 227.493851,171.062027 227.493851,172.548508 
	C226.949387,172.537994 226.404922,172.527466 225.860458,172.516953 
	C225.810669,171.579453 225.760895,170.641937 225.622681,169.408127 
z"/>
<path fill="#111111" opacity="1.000000" stroke="none" 
	d="
M207.034241,167.594360 
	C207.951294,168.388077 208.569702,169.106232 209.188110,169.824387 
	C208.762360,170.081650 208.336609,170.338913 207.910858,170.596176 
	C207.519104,169.570389 207.127350,168.544586 207.034241,167.594360 
z"/>
<path fill="#111111" opacity="1.000000" stroke="none" 
	d="
M213.550598,168.964981 
	C212.825897,168.947906 212.384033,168.877655 211.942169,168.807404 
	C211.937943,168.617920 211.933731,168.428452 211.929504,168.238968 
	C212.613403,168.238968 213.297607,168.229782 213.980667,168.253815 
	C214.045486,168.256119 214.176758,168.493454 214.147202,168.573959 
	C214.098343,168.707031 213.943573,168.801224 213.550598,168.964981 
z"/>
<path fill="#393939" opacity="1.000000" stroke="none" 
	d="
M221.161743,85.845299 
	C221.428406,85.929352 221.574265,86.137589 221.720108,86.345840 
	C221.510559,86.396942 221.301010,86.448044 220.947021,86.360085 
	C220.802597,86.221024 221.040924,85.969490 221.161743,85.845299 
z"/>
<path fill="#FCFCFC" opacity="1.000000" stroke="none" 
	d="
M140.115326,83.552078 
	C135.008041,83.996559 130.054276,83.994385 124.647057,83.994141 
	C124.193611,79.203247 124.193611,74.410408 124.193611,69.268311 
	C129.267258,69.268311 134.484741,69.268311 140.268860,69.268311 
	C140.268860,73.917816 140.268860,78.511620 140.115326,83.552078 
z"/>
<path fill="#1D1D1D" opacity="1.000000" stroke="none" 
	d="
M24.151234,51.707413 
	C23.396492,51.658985 22.865480,51.437981 22.369810,51.155064 
	C22.338711,51.137314 22.583920,50.635464 22.700581,50.358829 
	C23.261396,50.746124 23.822212,51.133419 24.151234,51.707413 
z"/>
<path fill="#050505" opacity="1.000000" stroke="none" 
	d="
M224.926712,156.948273 
	C222.052719,156.637573 220.695587,155.434601 220.906219,152.157074 
	C221.245163,146.882629 220.997192,141.570465 220.997192,136.230011 
	C231.900345,138.118774 234.269348,140.994141 230.017395,147.895294 
	C228.742050,146.575714 228.165039,145.231308 227.777054,143.834412 
	C227.368729,142.364365 227.141129,140.844116 226.834564,139.345810 
	C226.198608,139.401047 225.562668,139.456284 224.926712,139.511520 
	C224.926712,145.323761 224.926712,151.136017 224.926712,156.948273 
z"/>
<path fill="#AEAEAE" opacity="1.000000" stroke="none" 
	d="
M225.270874,157.022247 
	C224.926712,151.136017 224.926712,145.323761 224.926712,139.511520 
	C225.562668,139.456284 226.198608,139.401047 226.834564,139.345810 
	C227.141129,140.844116 227.368729,142.364365 227.777054,143.834412 
	C228.165039,145.231308 228.742050,146.575714 229.648376,148.043549 
	C230.060806,148.143906 230.036163,148.579727 229.919785,149.148102 
	C229.068542,151.091721 228.181305,152.413055 227.667084,153.866364 
	C227.431839,154.531189 227.931030,155.455856 228.097137,156.262680 
	C227.269775,156.540527 226.442398,156.818375 225.270874,157.022247 
z"/>
<path fill="#1D1D1D" opacity="1.000000" stroke="none" 
	d="
M228.462006,156.153870 
	C227.931030,155.455856 227.431839,154.531189 227.667084,153.866364 
	C228.181305,152.413055 229.068542,151.091721 229.902374,149.365662 
	C232.800735,149.537201 235.600098,150.059586 238.399475,150.581955 
	C238.464020,151.219452 238.528564,151.856964 238.593094,152.494461 
	C235.337692,153.677994 232.082291,154.861526 228.462006,156.153870 
z"/>
<path fill="#262626" opacity="1.000000" stroke="none" 
	d="
M214.605637,154.592468 
	C213.038696,154.019653 211.869766,153.567154 210.700851,153.114639 
	C210.619583,152.636719 210.538315,152.158798 210.457031,151.680878 
	C213.500427,150.477493 216.543823,149.274109 219.841858,147.970047 
	C219.628693,150.438721 219.453217,152.471008 219.243103,154.904419 
	C217.884811,154.843018 216.444229,154.777908 214.605637,154.592468 
M219.568176,151.981491 
	C218.326279,151.981491 217.084366,151.981491 215.842468,151.981491 
	C215.879669,152.493896 215.916870,153.006302 215.954086,153.518707 
	C217.086136,153.301804 218.218201,153.084915 219.568176,151.981491 
z"/>
<path fill="#F9F9F9" opacity="1.000000" stroke="none" 
	d="
M219.459229,152.424744 
	C218.218201,153.084915 217.086136,153.301804 215.954086,153.518707 
	C215.916870,153.006302 215.879669,152.493896 215.842468,151.981491 
	C217.084366,151.981491 218.326279,151.981491 219.459229,152.424744 
z"/>
</svg>